<mxfile host="Electron" agent="Mozilla/5.0 (Windows NT 10.0; Win64; x64) AppleWebKit/537.36 (KHTML, like Gecko) draw.io/26.0.4 Chrome/128.0.6613.186 Electron/32.2.5 Safari/537.36" version="26.0.4">
  <diagram name="Page-1" id="tO9cLfwo5ark7eMBGc8e">
    <mxGraphModel dx="2097" dy="727" grid="1" gridSize="10" guides="1" tooltips="1" connect="1" arrows="1" fold="1" page="1" pageScale="1" pageWidth="850" pageHeight="1100" math="0" shadow="0">
      <root>
        <mxCell id="0" />
        <mxCell id="1" parent="0" />
        <mxCell id="sCJPsLTUghXRObpwkUzK-2" value="A" style="text;html=1;align=center;verticalAlign=middle;whiteSpace=wrap;rounded=0;" parent="1" vertex="1">
          <mxGeometry x="70" y="180" width="60" height="30" as="geometry" />
        </mxCell>
        <mxCell id="sCJPsLTUghXRObpwkUzK-3" value="B" style="text;html=1;align=center;verticalAlign=middle;whiteSpace=wrap;rounded=0;" parent="1" vertex="1">
          <mxGeometry x="70" y="250" width="60" height="30" as="geometry" />
        </mxCell>
        <mxCell id="sCJPsLTUghXRObpwkUzK-4" value="C" style="text;html=1;align=center;verticalAlign=middle;whiteSpace=wrap;rounded=0;" parent="1" vertex="1">
          <mxGeometry x="70" y="330" width="60" height="30" as="geometry" />
        </mxCell>
        <mxCell id="sCJPsLTUghXRObpwkUzK-5" value="D" style="text;html=1;align=center;verticalAlign=middle;whiteSpace=wrap;rounded=0;" parent="1" vertex="1">
          <mxGeometry x="70" y="400" width="60" height="30" as="geometry" />
        </mxCell>
        <mxCell id="sCJPsLTUghXRObpwkUzK-6" value="" style="endArrow=none;html=1;rounded=0;exitX=1;exitY=0.5;exitDx=0;exitDy=0;edgeStyle=elbowEdgeStyle;entryX=0.175;entryY=0.25;entryDx=0;entryDy=0;entryPerimeter=0;" parent="1" target="sCJPsLTUghXRObpwkUzK-9" edge="1">
          <mxGeometry width="50" height="50" relative="1" as="geometry">
            <mxPoint x="130" y="196" as="sourcePoint" />
            <mxPoint x="410" y="196" as="targetPoint" />
          </mxGeometry>
        </mxCell>
        <mxCell id="sCJPsLTUghXRObpwkUzK-7" value="" style="endArrow=none;html=1;rounded=0;exitX=1;exitY=0.5;exitDx=0;exitDy=0;edgeStyle=elbowEdgeStyle;entryX=0.25;entryY=0.5;entryDx=0;entryDy=0;entryPerimeter=0;" parent="1" source="sCJPsLTUghXRObpwkUzK-3" target="sCJPsLTUghXRObpwkUzK-9" edge="1">
          <mxGeometry width="50" height="50" relative="1" as="geometry">
            <mxPoint x="210" y="290" as="sourcePoint" />
            <mxPoint x="410" y="265" as="targetPoint" />
          </mxGeometry>
        </mxCell>
        <mxCell id="sCJPsLTUghXRObpwkUzK-8" value="" style="endArrow=none;html=1;rounded=0;exitX=1;exitY=0.5;exitDx=0;exitDy=0;edgeStyle=elbowEdgeStyle;entryX=0.175;entryY=0.75;entryDx=0;entryDy=0;entryPerimeter=0;" parent="1" source="sCJPsLTUghXRObpwkUzK-4" target="sCJPsLTUghXRObpwkUzK-9" edge="1">
          <mxGeometry width="50" height="50" relative="1" as="geometry">
            <mxPoint x="130" y="344.65999999999997" as="sourcePoint" />
            <mxPoint x="410" y="344.65999999999997" as="targetPoint" />
          </mxGeometry>
        </mxCell>
        <mxCell id="sCJPsLTUghXRObpwkUzK-10" style="edgeStyle=elbowEdgeStyle;rounded=0;orthogonalLoop=1;jettySize=auto;html=1;exitX=1;exitY=0.5;exitDx=0;exitDy=0;exitPerimeter=0;endArrow=none;endFill=0;entryX=0;entryY=0.25;entryDx=0;entryDy=0;entryPerimeter=0;" parent="1" source="sCJPsLTUghXRObpwkUzK-9" target="sCJPsLTUghXRObpwkUzK-12" edge="1">
          <mxGeometry relative="1" as="geometry">
            <mxPoint x="689.9999999999998" y="299.9999999999999" as="targetPoint" />
          </mxGeometry>
        </mxCell>
        <mxCell id="sCJPsLTUghXRObpwkUzK-9" value="" style="shape=xor;whiteSpace=wrap;html=1;" parent="1" vertex="1">
          <mxGeometry x="470" y="225" width="60" height="80" as="geometry" />
        </mxCell>
        <mxCell id="sCJPsLTUghXRObpwkUzK-11" value="" style="endArrow=none;html=1;rounded=0;exitX=1;exitY=0.5;exitDx=0;exitDy=0;edgeStyle=elbowEdgeStyle;entryX=0.203;entryY=0.507;entryDx=0;entryDy=0;entryPerimeter=0;" parent="1" source="sCJPsLTUghXRObpwkUzK-5" target="sCJPsLTUghXRObpwkUzK-15" edge="1">
          <mxGeometry width="50" height="50" relative="1" as="geometry">
            <mxPoint x="190" y="440" as="sourcePoint" />
            <mxPoint x="250" y="415" as="targetPoint" />
          </mxGeometry>
        </mxCell>
        <mxCell id="sCJPsLTUghXRObpwkUzK-13" style="edgeStyle=orthogonalEdgeStyle;rounded=0;orthogonalLoop=1;jettySize=auto;html=1;endArrow=none;endFill=0;" parent="1" source="sCJPsLTUghXRObpwkUzK-12" edge="1">
          <mxGeometry relative="1" as="geometry">
            <mxPoint x="829.9999999999998" y="309.9999999999999" as="targetPoint" />
          </mxGeometry>
        </mxCell>
        <mxCell id="sCJPsLTUghXRObpwkUzK-12" value="" style="shape=or;whiteSpace=wrap;html=1;" parent="1" vertex="1">
          <mxGeometry x="700" y="270" width="60" height="80" as="geometry" />
        </mxCell>
        <mxCell id="sCJPsLTUghXRObpwkUzK-14" value="F" style="text;html=1;align=center;verticalAlign=middle;whiteSpace=wrap;rounded=0;" parent="1" vertex="1">
          <mxGeometry x="780" y="280" width="60" height="30" as="geometry" />
        </mxCell>
        <mxCell id="sCJPsLTUghXRObpwkUzK-15" value="" style="verticalLabelPosition=bottom;shadow=0;dashed=0;align=center;html=1;verticalAlign=top;shape=mxgraph.electrical.logic_gates.inverter_2" parent="1" vertex="1">
          <mxGeometry x="250" y="385" width="100" height="60" as="geometry" />
        </mxCell>
        <mxCell id="sCJPsLTUghXRObpwkUzK-16" style="edgeStyle=orthogonalEdgeStyle;rounded=0;orthogonalLoop=1;jettySize=auto;html=1;exitX=1;exitY=0.5;exitDx=0;exitDy=0;exitPerimeter=0;entryX=0;entryY=0.75;entryDx=0;entryDy=0;entryPerimeter=0;endArrow=none;endFill=0;" parent="1" source="sCJPsLTUghXRObpwkUzK-15" target="sCJPsLTUghXRObpwkUzK-12" edge="1">
          <mxGeometry relative="1" as="geometry" />
        </mxCell>
        <mxCell id="sCJPsLTUghXRObpwkUzK-18" style="edgeStyle=orthogonalEdgeStyle;rounded=0;orthogonalLoop=1;jettySize=auto;html=1;" parent="1" source="sCJPsLTUghXRObpwkUzK-17" edge="1">
          <mxGeometry relative="1" as="geometry">
            <mxPoint x="420" y="575" as="targetPoint" />
          </mxGeometry>
        </mxCell>
        <mxCell id="sCJPsLTUghXRObpwkUzK-17" value="D" style="text;html=1;align=center;verticalAlign=middle;whiteSpace=wrap;rounded=0;" parent="1" vertex="1">
          <mxGeometry x="70" y="560" width="60" height="30" as="geometry" />
        </mxCell>
        <mxCell id="sCJPsLTUghXRObpwkUzK-19" value="F" style="text;html=1;align=center;verticalAlign=middle;whiteSpace=wrap;rounded=0;" parent="1" vertex="1">
          <mxGeometry x="350" y="535" width="60" height="30" as="geometry" />
        </mxCell>
        <mxCell id="sCJPsLTUghXRObpwkUzK-20" value="" style="verticalLabelPosition=bottom;shadow=0;dashed=0;align=center;html=1;verticalAlign=top;shape=mxgraph.electrical.logic_gates.buffer2;" parent="1" vertex="1">
          <mxGeometry x="190" y="545" width="100" height="60" as="geometry" />
        </mxCell>
        <mxCell id="sCJPsLTUghXRObpwkUzK-21" value="" style="rounded=0;whiteSpace=wrap;html=1;" parent="1" vertex="1">
          <mxGeometry x="80" y="760" width="680" height="40" as="geometry" />
        </mxCell>
        <mxCell id="sCJPsLTUghXRObpwkUzK-24" value="32-bit word" style="text;html=1;align=center;verticalAlign=middle;whiteSpace=wrap;rounded=0;" parent="1" vertex="1">
          <mxGeometry x="390" y="720" width="80" height="30" as="geometry" />
        </mxCell>
        <mxCell id="sCJPsLTUghXRObpwkUzK-25" value="" style="endArrow=none;html=1;rounded=0;" parent="1" edge="1">
          <mxGeometry width="50" height="50" relative="1" as="geometry">
            <mxPoint x="160" y="800" as="sourcePoint" />
            <mxPoint x="160" y="760" as="targetPoint" />
          </mxGeometry>
        </mxCell>
        <mxCell id="sCJPsLTUghXRObpwkUzK-26" value="3-bit&lt;div&gt;address mode&lt;/div&gt;" style="text;html=1;align=center;verticalAlign=middle;whiteSpace=wrap;rounded=0;" parent="1" vertex="1">
          <mxGeometry x="80" y="765" width="80" height="30" as="geometry" />
        </mxCell>
        <mxCell id="sCJPsLTUghXRObpwkUzK-27" value="" style="endArrow=none;html=1;rounded=0;" parent="1" edge="1">
          <mxGeometry width="50" height="50" relative="1" as="geometry">
            <mxPoint x="299.83000000000004" y="800" as="sourcePoint" />
            <mxPoint x="299.83000000000004" y="760" as="targetPoint" />
          </mxGeometry>
        </mxCell>
        <mxCell id="sCJPsLTUghXRObpwkUzK-28" value="8-bit&lt;div&gt;opcode&lt;/div&gt;" style="text;html=1;align=center;verticalAlign=middle;whiteSpace=wrap;rounded=0;" parent="1" vertex="1">
          <mxGeometry x="190" y="765" width="80" height="30" as="geometry" />
        </mxCell>
        <mxCell id="sCJPsLTUghXRObpwkUzK-29" value="" style="endArrow=none;html=1;rounded=0;" parent="1" edge="1">
          <mxGeometry width="50" height="50" relative="1" as="geometry">
            <mxPoint x="410.00000000000006" y="800" as="sourcePoint" />
            <mxPoint x="410.00000000000006" y="760" as="targetPoint" />
          </mxGeometry>
        </mxCell>
        <mxCell id="sCJPsLTUghXRObpwkUzK-30" value="6-bit&lt;div&gt;register code&lt;/div&gt;" style="text;html=1;align=center;verticalAlign=middle;whiteSpace=wrap;rounded=0;" parent="1" vertex="1">
          <mxGeometry x="310" y="765" width="80" height="30" as="geometry" />
        </mxCell>
        <mxCell id="sCJPsLTUghXRObpwkUzK-31" value="15-bit&lt;div&gt;address&lt;/div&gt;" style="text;html=1;align=center;verticalAlign=middle;whiteSpace=wrap;rounded=0;" parent="1" vertex="1">
          <mxGeometry x="550" y="765" width="80" height="30" as="geometry" />
        </mxCell>
        <mxCell id="sCJPsLTUghXRObpwkUzK-32" value="[14-0]" style="text;html=1;align=center;verticalAlign=middle;whiteSpace=wrap;rounded=0;" parent="1" vertex="1">
          <mxGeometry x="550" y="810" width="80" height="30" as="geometry" />
        </mxCell>
        <mxCell id="sCJPsLTUghXRObpwkUzK-33" value="[20-15]" style="text;html=1;align=center;verticalAlign=middle;whiteSpace=wrap;rounded=0;" parent="1" vertex="1">
          <mxGeometry x="320" y="810" width="80" height="30" as="geometry" />
        </mxCell>
        <mxCell id="sCJPsLTUghXRObpwkUzK-34" value="[28-21]" style="text;html=1;align=center;verticalAlign=middle;whiteSpace=wrap;rounded=0;" parent="1" vertex="1">
          <mxGeometry x="190" y="810" width="80" height="30" as="geometry" />
        </mxCell>
        <mxCell id="sCJPsLTUghXRObpwkUzK-35" value="[31-29]" style="text;html=1;align=center;verticalAlign=middle;whiteSpace=wrap;rounded=0;" parent="1" vertex="1">
          <mxGeometry x="80" y="810" width="80" height="30" as="geometry" />
        </mxCell>
        <mxCell id="sCJPsLTUghXRObpwkUzK-36" value="0" style="text;html=1;align=center;verticalAlign=middle;whiteSpace=wrap;rounded=0;" parent="1" vertex="1">
          <mxGeometry x="730" y="800" width="60" height="30" as="geometry" />
        </mxCell>
        <mxCell id="sCJPsLTUghXRObpwkUzK-37" value="32" style="text;html=1;align=center;verticalAlign=middle;whiteSpace=wrap;rounded=0;" parent="1" vertex="1">
          <mxGeometry x="30" y="800" width="60" height="30" as="geometry" />
        </mxCell>
        <mxCell id="sCJPsLTUghXRObpwkUzK-38" value="" style="rounded=0;whiteSpace=wrap;html=1;" parent="1" vertex="1">
          <mxGeometry x="50" y="970" width="710" height="40" as="geometry" />
        </mxCell>
        <mxCell id="sCJPsLTUghXRObpwkUzK-39" value="32-bit word" style="text;html=1;align=center;verticalAlign=middle;whiteSpace=wrap;rounded=0;" parent="1" vertex="1">
          <mxGeometry x="390" y="930" width="80" height="30" as="geometry" />
        </mxCell>
        <mxCell id="sCJPsLTUghXRObpwkUzK-40" value="" style="endArrow=none;html=1;rounded=0;" parent="1" edge="1">
          <mxGeometry width="50" height="50" relative="1" as="geometry">
            <mxPoint x="160" y="1010" as="sourcePoint" />
            <mxPoint x="160" y="970" as="targetPoint" />
          </mxGeometry>
        </mxCell>
        <mxCell id="sCJPsLTUghXRObpwkUzK-41" value="1-bit&lt;div&gt;indirect addressing&lt;/div&gt;" style="text;html=1;align=center;verticalAlign=middle;whiteSpace=wrap;rounded=0;" parent="1" vertex="1">
          <mxGeometry x="50" y="980" width="110" height="25" as="geometry" />
        </mxCell>
        <mxCell id="sCJPsLTUghXRObpwkUzK-42" value="" style="endArrow=none;html=1;rounded=0;" parent="1" edge="1">
          <mxGeometry width="50" height="50" relative="1" as="geometry">
            <mxPoint x="299.83000000000004" y="1010" as="sourcePoint" />
            <mxPoint x="299.83000000000004" y="970" as="targetPoint" />
          </mxGeometry>
        </mxCell>
        <mxCell id="sCJPsLTUghXRObpwkUzK-43" value="9-bit&lt;div&gt;opcode&lt;/div&gt;" style="text;html=1;align=center;verticalAlign=middle;whiteSpace=wrap;rounded=0;" parent="1" vertex="1">
          <mxGeometry x="190" y="975" width="80" height="30" as="geometry" />
        </mxCell>
        <mxCell id="sCJPsLTUghXRObpwkUzK-44" value="" style="endArrow=none;html=1;rounded=0;" parent="1" edge="1">
          <mxGeometry width="50" height="50" relative="1" as="geometry">
            <mxPoint x="410.00000000000006" y="1010" as="sourcePoint" />
            <mxPoint x="410.00000000000006" y="970" as="targetPoint" />
          </mxGeometry>
        </mxCell>
        <mxCell id="sCJPsLTUghXRObpwkUzK-45" value="5-bit&lt;div&gt;register&lt;/div&gt;" style="text;html=1;align=center;verticalAlign=middle;whiteSpace=wrap;rounded=0;" parent="1" vertex="1">
          <mxGeometry x="310" y="975" width="80" height="30" as="geometry" />
        </mxCell>
        <mxCell id="sCJPsLTUghXRObpwkUzK-46" value="17-bit&lt;div&gt;address&lt;/div&gt;" style="text;html=1;align=center;verticalAlign=middle;whiteSpace=wrap;rounded=0;" parent="1" vertex="1">
          <mxGeometry x="550" y="975" width="80" height="30" as="geometry" />
        </mxCell>
        <mxCell id="sCJPsLTUghXRObpwkUzK-47" value="[16-0]" style="text;html=1;align=center;verticalAlign=middle;whiteSpace=wrap;rounded=0;" parent="1" vertex="1">
          <mxGeometry x="550" y="1010" width="80" height="30" as="geometry" />
        </mxCell>
        <mxCell id="sCJPsLTUghXRObpwkUzK-48" value="[21-17]" style="text;html=1;align=center;verticalAlign=middle;whiteSpace=wrap;rounded=0;" parent="1" vertex="1">
          <mxGeometry x="310" y="1010" width="80" height="30" as="geometry" />
        </mxCell>
        <mxCell id="sCJPsLTUghXRObpwkUzK-49" value="[30-22]" style="text;html=1;align=center;verticalAlign=middle;whiteSpace=wrap;rounded=0;" parent="1" vertex="1">
          <mxGeometry x="180" y="1010" width="80" height="30" as="geometry" />
        </mxCell>
        <mxCell id="sCJPsLTUghXRObpwkUzK-50" value="[31]" style="text;html=1;align=center;verticalAlign=middle;whiteSpace=wrap;rounded=0;" parent="1" vertex="1">
          <mxGeometry x="60" y="1010" width="80" height="30" as="geometry" />
        </mxCell>
        <mxCell id="sCJPsLTUghXRObpwkUzK-51" value="0" style="text;html=1;align=center;verticalAlign=middle;whiteSpace=wrap;rounded=0;" parent="1" vertex="1">
          <mxGeometry x="730" y="1010" width="60" height="30" as="geometry" />
        </mxCell>
        <mxCell id="sCJPsLTUghXRObpwkUzK-52" value="32" style="text;html=1;align=center;verticalAlign=middle;whiteSpace=wrap;rounded=0;" parent="1" vertex="1">
          <mxGeometry x="30" y="1010" width="60" height="30" as="geometry" />
        </mxCell>
        <mxCell id="sCJPsLTUghXRObpwkUzK-53" value="" style="rounded=0;whiteSpace=wrap;html=1;" parent="1" vertex="1">
          <mxGeometry x="45" y="1190" width="710" height="40" as="geometry" />
        </mxCell>
        <mxCell id="sCJPsLTUghXRObpwkUzK-54" value="32-bit word" style="text;html=1;align=center;verticalAlign=middle;whiteSpace=wrap;rounded=0;" parent="1" vertex="1">
          <mxGeometry x="385" y="1150" width="80" height="30" as="geometry" />
        </mxCell>
        <mxCell id="sCJPsLTUghXRObpwkUzK-55" value="" style="endArrow=none;html=1;rounded=0;" parent="1" edge="1">
          <mxGeometry width="50" height="50" relative="1" as="geometry">
            <mxPoint x="155" y="1230" as="sourcePoint" />
            <mxPoint x="155" y="1190" as="targetPoint" />
          </mxGeometry>
        </mxCell>
        <mxCell id="sCJPsLTUghXRObpwkUzK-68" style="edgeStyle=orthogonalEdgeStyle;rounded=0;orthogonalLoop=1;jettySize=auto;html=1;" parent="1" source="sCJPsLTUghXRObpwkUzK-56" target="sCJPsLTUghXRObpwkUzK-69" edge="1">
          <mxGeometry relative="1" as="geometry">
            <mxPoint x="100" y="1350.0000000000002" as="targetPoint" />
          </mxGeometry>
        </mxCell>
        <mxCell id="sCJPsLTUghXRObpwkUzK-56" value="1-bit&lt;div&gt;indirect addressing&lt;/div&gt;" style="text;html=1;align=center;verticalAlign=middle;whiteSpace=wrap;rounded=0;" parent="1" vertex="1">
          <mxGeometry x="45" y="1200" width="110" height="25" as="geometry" />
        </mxCell>
        <mxCell id="sCJPsLTUghXRObpwkUzK-57" value="" style="endArrow=none;html=1;rounded=0;" parent="1" edge="1">
          <mxGeometry width="50" height="50" relative="1" as="geometry">
            <mxPoint x="294.83000000000004" y="1230" as="sourcePoint" />
            <mxPoint x="294.83000000000004" y="1190" as="targetPoint" />
          </mxGeometry>
        </mxCell>
        <mxCell id="sCJPsLTUghXRObpwkUzK-71" style="edgeStyle=orthogonalEdgeStyle;rounded=0;orthogonalLoop=1;jettySize=auto;html=1;" parent="1" source="sCJPsLTUghXRObpwkUzK-58" target="sCJPsLTUghXRObpwkUzK-72" edge="1">
          <mxGeometry relative="1" as="geometry">
            <mxPoint x="225" y="1310.0000000000002" as="targetPoint" />
          </mxGeometry>
        </mxCell>
        <mxCell id="sCJPsLTUghXRObpwkUzK-58" value="9-bit&lt;div&gt;opcode&lt;/div&gt;" style="text;html=1;align=center;verticalAlign=middle;whiteSpace=wrap;rounded=0;" parent="1" vertex="1">
          <mxGeometry x="185" y="1195" width="80" height="30" as="geometry" />
        </mxCell>
        <mxCell id="sCJPsLTUghXRObpwkUzK-59" value="" style="endArrow=none;html=1;rounded=0;" parent="1" edge="1">
          <mxGeometry width="50" height="50" relative="1" as="geometry">
            <mxPoint x="405.00000000000006" y="1230" as="sourcePoint" />
            <mxPoint x="405.00000000000006" y="1190" as="targetPoint" />
          </mxGeometry>
        </mxCell>
        <mxCell id="sCJPsLTUghXRObpwkUzK-77" style="edgeStyle=orthogonalEdgeStyle;rounded=0;orthogonalLoop=1;jettySize=auto;html=1;entryX=0.5;entryY=0;entryDx=0;entryDy=0;" parent="1" source="sCJPsLTUghXRObpwkUzK-60" target="sCJPsLTUghXRObpwkUzK-78" edge="1">
          <mxGeometry relative="1" as="geometry">
            <mxPoint x="580" y="1330" as="targetPoint" />
            <Array as="points">
              <mxPoint x="345" y="1310" />
              <mxPoint x="555" y="1310" />
            </Array>
          </mxGeometry>
        </mxCell>
        <mxCell id="sCJPsLTUghXRObpwkUzK-60" value="5-bit&lt;div&gt;register&lt;/div&gt;" style="text;html=1;align=center;verticalAlign=middle;whiteSpace=wrap;rounded=0;" parent="1" vertex="1">
          <mxGeometry x="305" y="1195" width="80" height="30" as="geometry" />
        </mxCell>
        <mxCell id="sCJPsLTUghXRObpwkUzK-83" style="edgeStyle=orthogonalEdgeStyle;rounded=0;orthogonalLoop=1;jettySize=auto;html=1;entryX=-0.014;entryY=0.08;entryDx=0;entryDy=0;entryPerimeter=0;" parent="1" source="sCJPsLTUghXRObpwkUzK-61" target="sCJPsLTUghXRObpwkUzK-86" edge="1">
          <mxGeometry relative="1" as="geometry">
            <mxPoint x="810" y="1282" as="targetPoint" />
            <Array as="points">
              <mxPoint x="585" y="1280" />
            </Array>
          </mxGeometry>
        </mxCell>
        <mxCell id="sCJPsLTUghXRObpwkUzK-85" value="go to the AR" style="edgeLabel;html=1;align=center;verticalAlign=middle;resizable=0;points=[];" parent="sCJPsLTUghXRObpwkUzK-83" vertex="1" connectable="0">
          <mxGeometry x="0.2385" y="1" relative="1" as="geometry">
            <mxPoint as="offset" />
          </mxGeometry>
        </mxCell>
        <mxCell id="sCJPsLTUghXRObpwkUzK-61" value="17-bit&lt;div&gt;address&lt;/div&gt;" style="text;html=1;align=center;verticalAlign=middle;whiteSpace=wrap;rounded=0;" parent="1" vertex="1">
          <mxGeometry x="545" y="1195" width="80" height="30" as="geometry" />
        </mxCell>
        <mxCell id="sCJPsLTUghXRObpwkUzK-62" value="[16-0]" style="text;html=1;align=center;verticalAlign=middle;whiteSpace=wrap;rounded=0;" parent="1" vertex="1">
          <mxGeometry x="545" y="1160" width="80" height="30" as="geometry" />
        </mxCell>
        <mxCell id="sCJPsLTUghXRObpwkUzK-63" value="[21-17]" style="text;html=1;align=center;verticalAlign=middle;whiteSpace=wrap;rounded=0;" parent="1" vertex="1">
          <mxGeometry x="305" y="1160" width="80" height="30" as="geometry" />
        </mxCell>
        <mxCell id="sCJPsLTUghXRObpwkUzK-64" value="[30-22]" style="text;html=1;align=center;verticalAlign=middle;whiteSpace=wrap;rounded=0;" parent="1" vertex="1">
          <mxGeometry x="170" y="1160" width="80" height="30" as="geometry" />
        </mxCell>
        <mxCell id="sCJPsLTUghXRObpwkUzK-65" value="[31]" style="text;html=1;align=center;verticalAlign=middle;whiteSpace=wrap;rounded=0;" parent="1" vertex="1">
          <mxGeometry x="50" y="1165" width="80" height="30" as="geometry" />
        </mxCell>
        <mxCell id="sCJPsLTUghXRObpwkUzK-66" value="0" style="text;html=1;align=center;verticalAlign=middle;whiteSpace=wrap;rounded=0;" parent="1" vertex="1">
          <mxGeometry x="720" y="1160" width="60" height="30" as="geometry" />
        </mxCell>
        <mxCell id="sCJPsLTUghXRObpwkUzK-67" value="32" style="text;html=1;align=center;verticalAlign=middle;whiteSpace=wrap;rounded=0;" parent="1" vertex="1">
          <mxGeometry x="10" y="1160" width="60" height="30" as="geometry" />
        </mxCell>
        <mxCell id="sCJPsLTUghXRObpwkUzK-69" value="i" style="rounded=0;whiteSpace=wrap;html=1;" parent="1" vertex="1">
          <mxGeometry x="30" y="1360" width="30" height="30" as="geometry" />
        </mxCell>
        <mxCell id="sCJPsLTUghXRObpwkUzK-70" value="flip flop" style="text;html=1;align=center;verticalAlign=middle;whiteSpace=wrap;rounded=0;" parent="1" vertex="1">
          <mxGeometry x="-30" y="1360" width="60" height="30" as="geometry" />
        </mxCell>
        <mxCell id="sCJPsLTUghXRObpwkUzK-73" style="edgeStyle=orthogonalEdgeStyle;rounded=0;orthogonalLoop=1;jettySize=auto;html=1;exitX=1;exitY=1;exitDx=0;exitDy=0;entryX=0;entryY=0.711;entryDx=0;entryDy=0;entryPerimeter=0;" parent="1" source="sCJPsLTUghXRObpwkUzK-72" target="sCJPsLTUghXRObpwkUzK-86" edge="1">
          <mxGeometry relative="1" as="geometry">
            <mxPoint x="450" y="1480" as="targetPoint" />
            <Array as="points">
              <mxPoint x="323" y="1520" />
            </Array>
          </mxGeometry>
        </mxCell>
        <mxCell id="sCJPsLTUghXRObpwkUzK-74" value="D 0" style="edgeLabel;html=1;align=center;verticalAlign=middle;resizable=0;points=[];" parent="sCJPsLTUghXRObpwkUzK-73" vertex="1" connectable="0">
          <mxGeometry x="0.4945" relative="1" as="geometry">
            <mxPoint as="offset" />
          </mxGeometry>
        </mxCell>
        <mxCell id="sCJPsLTUghXRObpwkUzK-75" style="edgeStyle=orthogonalEdgeStyle;rounded=0;orthogonalLoop=1;jettySize=auto;html=1;exitX=0;exitY=1;exitDx=0;exitDy=0;entryX=-0.007;entryY=0.802;entryDx=0;entryDy=0;entryPerimeter=0;" parent="1" target="sCJPsLTUghXRObpwkUzK-86" edge="1">
          <mxGeometry relative="1" as="geometry">
            <mxPoint x="740" y="1590" as="targetPoint" />
            <mxPoint x="127.5" y="1404" as="sourcePoint" />
            <Array as="points">
              <mxPoint x="128" y="1554" />
              <mxPoint x="740" y="1554" />
            </Array>
          </mxGeometry>
        </mxCell>
        <mxCell id="sCJPsLTUghXRObpwkUzK-76" value="D 511" style="edgeLabel;html=1;align=center;verticalAlign=middle;resizable=0;points=[];" parent="sCJPsLTUghXRObpwkUzK-75" vertex="1" connectable="0">
          <mxGeometry x="0.7372" y="-3" relative="1" as="geometry">
            <mxPoint x="12" as="offset" />
          </mxGeometry>
        </mxCell>
        <mxCell id="sCJPsLTUghXRObpwkUzK-72" value="9* 512&lt;div&gt;decoder&lt;/div&gt;" style="rounded=0;whiteSpace=wrap;html=1;" parent="1" vertex="1">
          <mxGeometry x="127.5" y="1340" width="195" height="60" as="geometry" />
        </mxCell>
        <mxCell id="sCJPsLTUghXRObpwkUzK-79" style="edgeStyle=orthogonalEdgeStyle;rounded=0;orthogonalLoop=1;jettySize=auto;html=1;exitX=1;exitY=1;exitDx=0;exitDy=0;entryX=0;entryY=0.605;entryDx=0;entryDy=0;entryPerimeter=0;" parent="1" source="sCJPsLTUghXRObpwkUzK-78" target="sCJPsLTUghXRObpwkUzK-86" edge="1">
          <mxGeometry relative="1" as="geometry">
            <mxPoint x="820" y="1480" as="targetPoint" />
            <Array as="points">
              <mxPoint x="640" y="1480" />
            </Array>
          </mxGeometry>
        </mxCell>
        <mxCell id="sCJPsLTUghXRObpwkUzK-80" value="D 0" style="edgeLabel;html=1;align=center;verticalAlign=middle;resizable=0;points=[];" parent="sCJPsLTUghXRObpwkUzK-79" vertex="1" connectable="0">
          <mxGeometry x="0.6667" relative="1" as="geometry">
            <mxPoint as="offset" />
          </mxGeometry>
        </mxCell>
        <mxCell id="sCJPsLTUghXRObpwkUzK-81" style="edgeStyle=orthogonalEdgeStyle;rounded=0;orthogonalLoop=1;jettySize=auto;html=1;exitX=0;exitY=1;exitDx=0;exitDy=0;entryX=0.014;entryY=0.664;entryDx=0;entryDy=0;entryPerimeter=0;" parent="1" source="sCJPsLTUghXRObpwkUzK-78" target="sCJPsLTUghXRObpwkUzK-86" edge="1">
          <mxGeometry relative="1" as="geometry">
            <mxPoint x="780" y="1560" as="targetPoint" />
            <Array as="points">
              <mxPoint x="470" y="1500" />
              <mxPoint x="780" y="1500" />
              <mxPoint x="780" y="1502" />
            </Array>
          </mxGeometry>
        </mxCell>
        <mxCell id="sCJPsLTUghXRObpwkUzK-82" value="D 31" style="edgeLabel;html=1;align=center;verticalAlign=middle;resizable=0;points=[];" parent="sCJPsLTUghXRObpwkUzK-81" vertex="1" connectable="0">
          <mxGeometry x="0.6944" y="2" relative="1" as="geometry">
            <mxPoint as="offset" />
          </mxGeometry>
        </mxCell>
        <mxCell id="sCJPsLTUghXRObpwkUzK-78" value="5 * 32&lt;div&gt;decoder&lt;/div&gt;" style="rounded=0;whiteSpace=wrap;html=1;" parent="1" vertex="1">
          <mxGeometry x="470" y="1330" width="170" height="60" as="geometry" />
        </mxCell>
        <mxCell id="sCJPsLTUghXRObpwkUzK-89" style="edgeStyle=orthogonalEdgeStyle;rounded=0;orthogonalLoop=1;jettySize=auto;html=1;" parent="1" source="sCJPsLTUghXRObpwkUzK-86" edge="1">
          <mxGeometry relative="1" as="geometry">
            <mxPoint x="1040" y="1440" as="targetPoint" />
          </mxGeometry>
        </mxCell>
        <mxCell id="sCJPsLTUghXRObpwkUzK-86" value="Control&lt;br/&gt; logic&lt;br/&gt; gates" style="rounded=0;whiteSpace=wrap;html=1;" parent="1" vertex="1">
          <mxGeometry x="850" y="1250" width="120" height="380" as="geometry" />
        </mxCell>
        <mxCell id="sCJPsLTUghXRObpwkUzK-88" style="edgeStyle=orthogonalEdgeStyle;rounded=0;orthogonalLoop=1;jettySize=auto;html=1;entryX=0.021;entryY=0.944;entryDx=0;entryDy=0;entryPerimeter=0;" parent="1" source="sCJPsLTUghXRObpwkUzK-69" target="sCJPsLTUghXRObpwkUzK-86" edge="1">
          <mxGeometry relative="1" as="geometry">
            <Array as="points">
              <mxPoint x="50" y="1609" />
            </Array>
          </mxGeometry>
        </mxCell>
        <mxCell id="sCJPsLTUghXRObpwkUzK-91" style="edgeStyle=orthogonalEdgeStyle;rounded=0;orthogonalLoop=1;jettySize=auto;html=1;" parent="1" source="sCJPsLTUghXRObpwkUzK-90" target="sCJPsLTUghXRObpwkUzK-92" edge="1">
          <mxGeometry relative="1" as="geometry">
            <mxPoint x="40" y="1870" as="targetPoint" />
          </mxGeometry>
        </mxCell>
        <mxCell id="sCJPsLTUghXRObpwkUzK-102" style="edgeStyle=orthogonalEdgeStyle;rounded=0;orthogonalLoop=1;jettySize=auto;html=1;" parent="1" source="sCJPsLTUghXRObpwkUzK-90" target="sCJPsLTUghXRObpwkUzK-104" edge="1">
          <mxGeometry relative="1" as="geometry">
            <mxPoint x="850" y="1890" as="targetPoint" />
          </mxGeometry>
        </mxCell>
        <mxCell id="sCJPsLTUghXRObpwkUzK-90" value="R" style="rhombus;whiteSpace=wrap;html=1;" parent="1" vertex="1">
          <mxGeometry x="380" y="1730" width="80" height="80" as="geometry" />
        </mxCell>
        <mxCell id="sCJPsLTUghXRObpwkUzK-93" style="edgeStyle=orthogonalEdgeStyle;rounded=0;orthogonalLoop=1;jettySize=auto;html=1;exitX=0.188;exitY=1.018;exitDx=0;exitDy=0;entryX=0.5;entryY=0;entryDx=0;entryDy=0;exitPerimeter=0;" parent="1" source="sCJPsLTUghXRObpwkUzK-92" target="sCJPsLTUghXRObpwkUzK-94" edge="1">
          <mxGeometry relative="1" as="geometry">
            <mxPoint x="27.315789473684163" y="2000" as="targetPoint" />
          </mxGeometry>
        </mxCell>
        <mxCell id="sCJPsLTUghXRObpwkUzK-95" style="edgeStyle=orthogonalEdgeStyle;rounded=0;orthogonalLoop=1;jettySize=auto;html=1;exitX=0.75;exitY=1;exitDx=0;exitDy=0;" parent="1" source="sCJPsLTUghXRObpwkUzK-92" target="sCJPsLTUghXRObpwkUzK-97" edge="1">
          <mxGeometry relative="1" as="geometry">
            <mxPoint x="160" y="2000" as="targetPoint" />
          </mxGeometry>
        </mxCell>
        <mxCell id="sCJPsLTUghXRObpwkUzK-92" value="&amp;nbsp;Fetch and decode&lt;br/&gt; instruction" style="rounded=0;whiteSpace=wrap;html=1;" parent="1" vertex="1">
          <mxGeometry x="-20" y="1840" width="240" height="60" as="geometry" />
        </mxCell>
        <mxCell id="sCJPsLTUghXRObpwkUzK-114" style="edgeStyle=orthogonalEdgeStyle;rounded=0;orthogonalLoop=1;jettySize=auto;html=1;" parent="1" source="sCJPsLTUghXRObpwkUzK-94" edge="1">
          <mxGeometry relative="1" as="geometry">
            <mxPoint x="25" y="2500" as="targetPoint" />
          </mxGeometry>
        </mxCell>
        <mxCell id="sCJPsLTUghXRObpwkUzK-94" value="&amp;nbsp;Execute&lt;br/&gt; instruction" style="rounded=0;whiteSpace=wrap;html=1;" parent="1" vertex="1">
          <mxGeometry x="-35" y="2000" width="120" height="60" as="geometry" />
        </mxCell>
        <mxCell id="sCJPsLTUghXRObpwkUzK-99" value="" style="edgeStyle=orthogonalEdgeStyle;rounded=0;orthogonalLoop=1;jettySize=auto;html=1;" parent="1" source="sCJPsLTUghXRObpwkUzK-97" target="sCJPsLTUghXRObpwkUzK-98" edge="1">
          <mxGeometry relative="1" as="geometry" />
        </mxCell>
        <mxCell id="sCJPsLTUghXRObpwkUzK-110" style="edgeStyle=orthogonalEdgeStyle;rounded=0;orthogonalLoop=1;jettySize=auto;html=1;" parent="1" source="sCJPsLTUghXRObpwkUzK-97" edge="1">
          <mxGeometry relative="1" as="geometry">
            <mxPoint x="290" y="2500" as="targetPoint" />
          </mxGeometry>
        </mxCell>
        <mxCell id="sCJPsLTUghXRObpwkUzK-97" value="&#xa;IEN&#xa;&#xa;" style="rhombus;whiteSpace=wrap;html=1;" parent="1" vertex="1">
          <mxGeometry x="120" y="1960" width="80" height="80" as="geometry" />
        </mxCell>
        <mxCell id="sCJPsLTUghXRObpwkUzK-101" value="" style="edgeStyle=orthogonalEdgeStyle;rounded=0;orthogonalLoop=1;jettySize=auto;html=1;" parent="1" source="sCJPsLTUghXRObpwkUzK-98" target="sCJPsLTUghXRObpwkUzK-100" edge="1">
          <mxGeometry relative="1" as="geometry" />
        </mxCell>
        <mxCell id="sCJPsLTUghXRObpwkUzK-112" style="edgeStyle=orthogonalEdgeStyle;rounded=0;orthogonalLoop=1;jettySize=auto;html=1;exitX=0;exitY=0.5;exitDx=0;exitDy=0;entryX=0;entryY=0;entryDx=0;entryDy=0;" parent="1" source="sCJPsLTUghXRObpwkUzK-98" target="sCJPsLTUghXRObpwkUzK-125" edge="1">
          <mxGeometry relative="1" as="geometry">
            <mxPoint x="50" y="2330" as="targetPoint" />
          </mxGeometry>
        </mxCell>
        <mxCell id="sCJPsLTUghXRObpwkUzK-98" value="FGI" style="rhombus;whiteSpace=wrap;html=1;" parent="1" vertex="1">
          <mxGeometry x="120" y="2120" width="80" height="80" as="geometry" />
        </mxCell>
        <mxCell id="sCJPsLTUghXRObpwkUzK-111" style="edgeStyle=orthogonalEdgeStyle;rounded=0;orthogonalLoop=1;jettySize=auto;html=1;" parent="1" source="sCJPsLTUghXRObpwkUzK-100" edge="1">
          <mxGeometry relative="1" as="geometry">
            <mxPoint x="160" y="2500" as="targetPoint" />
          </mxGeometry>
        </mxCell>
        <mxCell id="sCJPsLTUghXRObpwkUzK-113" style="edgeStyle=orthogonalEdgeStyle;rounded=0;orthogonalLoop=1;jettySize=auto;html=1;exitX=0;exitY=0.5;exitDx=0;exitDy=0;entryX=0.5;entryY=0;entryDx=0;entryDy=0;" parent="1" source="sCJPsLTUghXRObpwkUzK-100" target="sCJPsLTUghXRObpwkUzK-125" edge="1">
          <mxGeometry relative="1" as="geometry">
            <mxPoint x="80" y="2340" as="targetPoint" />
          </mxGeometry>
        </mxCell>
        <mxCell id="sCJPsLTUghXRObpwkUzK-100" value="FGO" style="rhombus;whiteSpace=wrap;html=1;" parent="1" vertex="1">
          <mxGeometry x="120" y="2280" width="80" height="80" as="geometry" />
        </mxCell>
        <mxCell id="sCJPsLTUghXRObpwkUzK-106" value="" style="edgeStyle=orthogonalEdgeStyle;rounded=0;orthogonalLoop=1;jettySize=auto;html=1;" parent="1" source="sCJPsLTUghXRObpwkUzK-104" target="sCJPsLTUghXRObpwkUzK-105" edge="1">
          <mxGeometry relative="1" as="geometry" />
        </mxCell>
        <mxCell id="sCJPsLTUghXRObpwkUzK-104" value="&amp;nbsp;Store return address&lt;br&gt; in location 0&lt;br&gt; M [0] &amp;lt;--PC" style="rounded=0;whiteSpace=wrap;html=1;" parent="1" vertex="1">
          <mxGeometry x="790" y="1860" width="180" height="80" as="geometry" />
        </mxCell>
        <mxCell id="sCJPsLTUghXRObpwkUzK-108" value="" style="edgeStyle=orthogonalEdgeStyle;rounded=0;orthogonalLoop=1;jettySize=auto;html=1;" parent="1" source="sCJPsLTUghXRObpwkUzK-105" target="sCJPsLTUghXRObpwkUzK-107" edge="1">
          <mxGeometry relative="1" as="geometry" />
        </mxCell>
        <mxCell id="sCJPsLTUghXRObpwkUzK-105" value="&amp;nbsp;Branch to location 1&amp;nbsp;&lt;div&gt;&amp;nbsp;PC &amp;lt;-- 1&lt;/div&gt;" style="rounded=0;whiteSpace=wrap;html=1;" parent="1" vertex="1">
          <mxGeometry x="790" y="2020" width="180" height="80" as="geometry" />
        </mxCell>
        <mxCell id="sCJPsLTUghXRObpwkUzK-109" style="edgeStyle=orthogonalEdgeStyle;rounded=0;orthogonalLoop=1;jettySize=auto;html=1;entryX=0.5;entryY=0;entryDx=0;entryDy=0;" parent="1" source="sCJPsLTUghXRObpwkUzK-107" target="sCJPsLTUghXRObpwkUzK-90" edge="1">
          <mxGeometry relative="1" as="geometry">
            <mxPoint x="-170" y="2460" as="targetPoint" />
            <Array as="points">
              <mxPoint x="880" y="2500" />
              <mxPoint x="-170" y="2500" />
              <mxPoint x="-170" y="1650" />
              <mxPoint x="420" y="1650" />
            </Array>
          </mxGeometry>
        </mxCell>
        <mxCell id="sCJPsLTUghXRObpwkUzK-107" value="IEN &amp;lt;-- 0&lt;div&gt;R &amp;lt;-- 0&lt;/div&gt;" style="rounded=0;whiteSpace=wrap;html=1;" parent="1" vertex="1">
          <mxGeometry x="790" y="2180" width="180" height="80" as="geometry" />
        </mxCell>
        <mxCell id="sCJPsLTUghXRObpwkUzK-115" value="= 0" style="text;html=1;align=center;verticalAlign=middle;whiteSpace=wrap;rounded=0;" parent="1" vertex="1">
          <mxGeometry x="315" y="1740" width="60" height="30" as="geometry" />
        </mxCell>
        <mxCell id="sCJPsLTUghXRObpwkUzK-116" value=" Instruction cycle&lt;div&gt;&lt;br/&gt;&lt;/div&gt;" style="text;html=1;align=center;verticalAlign=middle;whiteSpace=wrap;rounded=0;" parent="1" vertex="1">
          <mxGeometry x="100" y="1740" width="110" height="30" as="geometry" />
        </mxCell>
        <mxCell id="sCJPsLTUghXRObpwkUzK-117" value="= 1" style="text;html=1;align=center;verticalAlign=middle;whiteSpace=wrap;rounded=0;" parent="1" vertex="1">
          <mxGeometry x="470" y="1740" width="60" height="30" as="geometry" />
        </mxCell>
        <mxCell id="sCJPsLTUghXRObpwkUzK-118" value="Instruction cycle" style="text;whiteSpace=wrap;html=1;" parent="1" vertex="1">
          <mxGeometry x="735" y="1730" width="150" height="40" as="geometry" />
        </mxCell>
        <mxCell id="sCJPsLTUghXRObpwkUzK-119" value="= 0" style="text;html=1;align=center;verticalAlign=middle;whiteSpace=wrap;rounded=0;" parent="1" vertex="1">
          <mxGeometry x="200" y="1970" width="60" height="30" as="geometry" />
        </mxCell>
        <mxCell id="sCJPsLTUghXRObpwkUzK-120" value="= 0" style="text;html=1;align=center;verticalAlign=middle;whiteSpace=wrap;rounded=0;" parent="1" vertex="1">
          <mxGeometry x="160" y="2210" width="60" height="30" as="geometry" />
        </mxCell>
        <mxCell id="sCJPsLTUghXRObpwkUzK-121" value="= 0" style="text;html=1;align=center;verticalAlign=middle;whiteSpace=wrap;rounded=0;" parent="1" vertex="1">
          <mxGeometry x="160" y="2370" width="60" height="30" as="geometry" />
        </mxCell>
        <mxCell id="sCJPsLTUghXRObpwkUzK-122" value="= 1" style="text;html=1;align=center;verticalAlign=middle;whiteSpace=wrap;rounded=0;" parent="1" vertex="1">
          <mxGeometry x="160" y="2045" width="60" height="30" as="geometry" />
        </mxCell>
        <mxCell id="sCJPsLTUghXRObpwkUzK-123" value="= 1" style="text;html=1;align=center;verticalAlign=middle;whiteSpace=wrap;rounded=0;" parent="1" vertex="1">
          <mxGeometry x="50" y="2130" width="60" height="30" as="geometry" />
        </mxCell>
        <mxCell id="sCJPsLTUghXRObpwkUzK-124" value="= 1" style="text;html=1;align=center;verticalAlign=middle;whiteSpace=wrap;rounded=0;" parent="1" vertex="1">
          <mxGeometry x="70" y="2290" width="60" height="30" as="geometry" />
        </mxCell>
        <mxCell id="sCJPsLTUghXRObpwkUzK-126" style="edgeStyle=orthogonalEdgeStyle;rounded=0;orthogonalLoop=1;jettySize=auto;html=1;" parent="1" source="sCJPsLTUghXRObpwkUzK-125" edge="1">
          <mxGeometry relative="1" as="geometry">
            <mxPoint x="90" y="2500" as="targetPoint" />
          </mxGeometry>
        </mxCell>
        <mxCell id="sCJPsLTUghXRObpwkUzK-125" value="R &amp;lt;-- 1" style="rounded=0;whiteSpace=wrap;html=1;" parent="1" vertex="1">
          <mxGeometry x="52.5" y="2370" width="75" height="20" as="geometry" />
        </mxCell>
        <mxCell id="sCJPsLTUghXRObpwkUzK-129" value="" style="edgeStyle=orthogonalEdgeStyle;rounded=0;orthogonalLoop=1;jettySize=auto;html=1;" parent="1" source="sCJPsLTUghXRObpwkUzK-127" target="sCJPsLTUghXRObpwkUzK-128" edge="1">
          <mxGeometry relative="1" as="geometry" />
        </mxCell>
        <mxCell id="sCJPsLTUghXRObpwkUzK-127" value="SC &amp;lt;-- 0" style="rounded=0;whiteSpace=wrap;html=1;" parent="1" vertex="1">
          <mxGeometry x="310" y="2650" width="305" height="30" as="geometry" />
        </mxCell>
        <mxCell id="sCJPsLTUghXRObpwkUzK-132" value="" style="edgeStyle=orthogonalEdgeStyle;rounded=0;orthogonalLoop=1;jettySize=auto;html=1;" parent="1" source="sCJPsLTUghXRObpwkUzK-128" target="sCJPsLTUghXRObpwkUzK-131" edge="1">
          <mxGeometry relative="1" as="geometry" />
        </mxCell>
        <mxCell id="sCJPsLTUghXRObpwkUzK-128" value="AR &amp;lt;-- PC" style="rounded=0;whiteSpace=wrap;html=1;" parent="1" vertex="1">
          <mxGeometry x="310" y="2760" width="305" height="30" as="geometry" />
        </mxCell>
        <mxCell id="sCJPsLTUghXRObpwkUzK-130" value="T 0" style="text;html=1;align=center;verticalAlign=middle;whiteSpace=wrap;rounded=0;" parent="1" vertex="1">
          <mxGeometry x="555" y="2730" width="60" height="30" as="geometry" />
        </mxCell>
        <mxCell id="sCJPsLTUghXRObpwkUzK-138" value="" style="edgeStyle=orthogonalEdgeStyle;rounded=0;orthogonalLoop=1;jettySize=auto;html=1;" parent="1" source="sCJPsLTUghXRObpwkUzK-131" target="sCJPsLTUghXRObpwkUzK-137" edge="1">
          <mxGeometry relative="1" as="geometry" />
        </mxCell>
        <mxCell id="sCJPsLTUghXRObpwkUzK-131" value="IR &amp;lt;-- M[AR]&lt;div&gt;PC &amp;lt;-- PC+1&lt;/div&gt;" style="whiteSpace=wrap;html=1;rounded=0;" parent="1" vertex="1">
          <mxGeometry x="318.75" y="2850" width="287.5" height="60" as="geometry" />
        </mxCell>
        <mxCell id="sCJPsLTUghXRObpwkUzK-133" value="T 1" style="text;html=1;align=center;verticalAlign=middle;whiteSpace=wrap;rounded=0;" parent="1" vertex="1">
          <mxGeometry x="545" y="2820" width="60" height="30" as="geometry" />
        </mxCell>
        <mxCell id="sCJPsLTUghXRObpwkUzK-134" value="" style="shape=curlyBracket;whiteSpace=wrap;html=1;rounded=1;labelPosition=left;verticalLabelPosition=middle;align=right;verticalAlign=middle;" parent="1" vertex="1">
          <mxGeometry x="280" y="2750" width="20" height="170" as="geometry" />
        </mxCell>
        <mxCell id="sCJPsLTUghXRObpwkUzK-135" value="" style="shape=curlyBracket;whiteSpace=wrap;html=1;rounded=1;flipH=1;labelPosition=right;verticalLabelPosition=middle;align=left;verticalAlign=middle;" parent="1" vertex="1">
          <mxGeometry x="660" y="2750" width="20" height="170" as="geometry" />
        </mxCell>
        <mxCell id="sCJPsLTUghXRObpwkUzK-136" value="FETCH" style="text;html=1;align=center;verticalAlign=middle;whiteSpace=wrap;rounded=0;" parent="1" vertex="1">
          <mxGeometry x="690" y="2820" width="60" height="30" as="geometry" />
        </mxCell>
        <mxCell id="sCJPsLTUghXRObpwkUzK-144" value="" style="edgeStyle=orthogonalEdgeStyle;rounded=0;orthogonalLoop=1;jettySize=auto;html=1;" parent="1" source="sCJPsLTUghXRObpwkUzK-137" target="sCJPsLTUghXRObpwkUzK-143" edge="1">
          <mxGeometry relative="1" as="geometry" />
        </mxCell>
        <mxCell id="sCJPsLTUghXRObpwkUzK-137" value="D0.....D7 &amp;lt;-- Decode IR (12-14)&lt;div&gt;AR &amp;lt;-- IR(0-11)&lt;/div&gt;&lt;div&gt;I &amp;lt;-- IR(15)&lt;/div&gt;" style="whiteSpace=wrap;html=1;rounded=0;" parent="1" vertex="1">
          <mxGeometry x="318.75" y="2990" width="287.5" height="60" as="geometry" />
        </mxCell>
        <mxCell id="sCJPsLTUghXRObpwkUzK-139" value="T 2" style="text;html=1;align=center;verticalAlign=middle;whiteSpace=wrap;rounded=0;" parent="1" vertex="1">
          <mxGeometry x="550" y="2960" width="60" height="30" as="geometry" />
        </mxCell>
        <mxCell id="sCJPsLTUghXRObpwkUzK-140" value="" style="shape=curlyBracket;whiteSpace=wrap;html=1;rounded=1;flipH=1;labelPosition=right;verticalLabelPosition=middle;align=left;verticalAlign=middle;" parent="1" vertex="1">
          <mxGeometry x="640" y="2970" width="20" height="120" as="geometry" />
        </mxCell>
        <mxCell id="sCJPsLTUghXRObpwkUzK-141" value="" style="shape=curlyBracket;whiteSpace=wrap;html=1;rounded=1;labelPosition=left;verticalLabelPosition=middle;align=right;verticalAlign=middle;" parent="1" vertex="1">
          <mxGeometry x="280" y="2980" width="20" height="120" as="geometry" />
        </mxCell>
        <mxCell id="sCJPsLTUghXRObpwkUzK-142" value="DECODE" style="text;html=1;align=center;verticalAlign=middle;whiteSpace=wrap;rounded=0;" parent="1" vertex="1">
          <mxGeometry x="670" y="3015" width="60" height="30" as="geometry" />
        </mxCell>
        <mxCell id="sCJPsLTUghXRObpwkUzK-149" value="" style="edgeStyle=orthogonalEdgeStyle;rounded=0;orthogonalLoop=1;jettySize=auto;html=1;" parent="1" source="sCJPsLTUghXRObpwkUzK-143" target="sCJPsLTUghXRObpwkUzK-148" edge="1">
          <mxGeometry relative="1" as="geometry" />
        </mxCell>
        <mxCell id="sCJPsLTUghXRObpwkUzK-143" value="D 7" style="rhombus;whiteSpace=wrap;html=1;rounded=0;" parent="1" vertex="1">
          <mxGeometry x="422.5" y="3120" width="80" height="80" as="geometry" />
        </mxCell>
        <mxCell id="sCJPsLTUghXRObpwkUzK-145" value="&amp;nbsp;= 0&amp;nbsp;" style="text;html=1;align=center;verticalAlign=middle;whiteSpace=wrap;rounded=0;" parent="1" vertex="1">
          <mxGeometry x="485" y="3190" width="60" height="30" as="geometry" />
        </mxCell>
        <mxCell id="sCJPsLTUghXRObpwkUzK-151" value="" style="edgeStyle=orthogonalEdgeStyle;rounded=0;orthogonalLoop=1;jettySize=auto;html=1;" parent="1" source="sCJPsLTUghXRObpwkUzK-148" target="sCJPsLTUghXRObpwkUzK-152" edge="1">
          <mxGeometry relative="1" as="geometry">
            <mxPoint x="690.0344827586209" y="3420.0344827586205" as="targetPoint" />
          </mxGeometry>
        </mxCell>
        <mxCell id="sCJPsLTUghXRObpwkUzK-154" value="" style="edgeStyle=orthogonalEdgeStyle;rounded=0;orthogonalLoop=1;jettySize=auto;html=1;" parent="1" source="sCJPsLTUghXRObpwkUzK-148" target="sCJPsLTUghXRObpwkUzK-153" edge="1">
          <mxGeometry relative="1" as="geometry" />
        </mxCell>
        <mxCell id="sCJPsLTUghXRObpwkUzK-148" value="I" style="rhombus;whiteSpace=wrap;html=1;rounded=0;" parent="1" vertex="1">
          <mxGeometry x="422.5" y="3280" width="80" height="80" as="geometry" />
        </mxCell>
        <mxCell id="sCJPsLTUghXRObpwkUzK-160" value="" style="edgeStyle=orthogonalEdgeStyle;rounded=0;orthogonalLoop=1;jettySize=auto;html=1;" parent="1" source="sCJPsLTUghXRObpwkUzK-152" target="sCJPsLTUghXRObpwkUzK-159" edge="1">
          <mxGeometry relative="1" as="geometry" />
        </mxCell>
        <mxCell id="sCJPsLTUghXRObpwkUzK-152" value="NOTHING" style="rounded=0;whiteSpace=wrap;html=1;" parent="1" vertex="1">
          <mxGeometry x="630.0344827586209" y="3390.0344827586205" width="120" height="60" as="geometry" />
        </mxCell>
        <mxCell id="sCJPsLTUghXRObpwkUzK-169" style="edgeStyle=orthogonalEdgeStyle;rounded=0;orthogonalLoop=1;jettySize=auto;html=1;" parent="1" source="sCJPsLTUghXRObpwkUzK-153" target="sCJPsLTUghXRObpwkUzK-159" edge="1">
          <mxGeometry relative="1" as="geometry" />
        </mxCell>
        <mxCell id="sCJPsLTUghXRObpwkUzK-153" value="AR &amp;lt;--M[AR]" style="whiteSpace=wrap;html=1;rounded=0;" parent="1" vertex="1">
          <mxGeometry x="180" y="3390.03" width="120" height="60" as="geometry" />
        </mxCell>
        <mxCell id="sCJPsLTUghXRObpwkUzK-155" value="&amp;nbsp;= 0&amp;nbsp;" style="text;html=1;align=center;verticalAlign=middle;whiteSpace=wrap;rounded=0;" parent="1" vertex="1">
          <mxGeometry x="502.5" y="3290" width="60" height="30" as="geometry" />
        </mxCell>
        <mxCell id="sCJPsLTUghXRObpwkUzK-156" value="&amp;nbsp;= 1" style="text;html=1;align=center;verticalAlign=middle;whiteSpace=wrap;rounded=0;" parent="1" vertex="1">
          <mxGeometry x="360" y="3290" width="60" height="30" as="geometry" />
        </mxCell>
        <mxCell id="sCJPsLTUghXRObpwkUzK-157" value="T 3" style="text;html=1;align=center;verticalAlign=middle;whiteSpace=wrap;rounded=0;" parent="1" vertex="1">
          <mxGeometry x="700" y="3360" width="60" height="30" as="geometry" />
        </mxCell>
        <mxCell id="sCJPsLTUghXRObpwkUzK-158" value="T 3" style="text;html=1;align=center;verticalAlign=middle;whiteSpace=wrap;rounded=0;" parent="1" vertex="1">
          <mxGeometry x="250" y="3360" width="60" height="30" as="geometry" />
        </mxCell>
        <mxCell id="sCJPsLTUghXRObpwkUzK-163" value="" style="edgeStyle=orthogonalEdgeStyle;rounded=0;orthogonalLoop=1;jettySize=auto;html=1;" parent="1" source="sCJPsLTUghXRObpwkUzK-159" target="sCJPsLTUghXRObpwkUzK-162" edge="1">
          <mxGeometry relative="1" as="geometry" />
        </mxCell>
        <mxCell id="sCJPsLTUghXRObpwkUzK-159" value="DR &amp;lt;-- M[AR]" style="rounded=0;whiteSpace=wrap;html=1;" parent="1" vertex="1">
          <mxGeometry x="402.50448275862095" y="3530.0344827586205" width="120" height="60" as="geometry" />
        </mxCell>
        <mxCell id="sCJPsLTUghXRObpwkUzK-161" value="D6 T 4" style="text;html=1;align=center;verticalAlign=middle;whiteSpace=wrap;rounded=0;" parent="1" vertex="1">
          <mxGeometry x="472.47" y="3500.03" width="60" height="30" as="geometry" />
        </mxCell>
        <mxCell id="sCJPsLTUghXRObpwkUzK-166" value="" style="edgeStyle=orthogonalEdgeStyle;rounded=0;orthogonalLoop=1;jettySize=auto;html=1;" parent="1" source="sCJPsLTUghXRObpwkUzK-162" target="sCJPsLTUghXRObpwkUzK-165" edge="1">
          <mxGeometry relative="1" as="geometry" />
        </mxCell>
        <mxCell id="sCJPsLTUghXRObpwkUzK-162" value="DR &amp;lt;-- DR + 1" style="rounded=0;whiteSpace=wrap;html=1;" parent="1" vertex="1">
          <mxGeometry x="402.50448275862095" y="3670.0344827586205" width="120" height="60" as="geometry" />
        </mxCell>
        <mxCell id="sCJPsLTUghXRObpwkUzK-164" value="D6 T 5" style="text;html=1;align=center;verticalAlign=middle;whiteSpace=wrap;rounded=0;" parent="1" vertex="1">
          <mxGeometry x="467.47" y="3640.03" width="60" height="30" as="geometry" />
        </mxCell>
        <mxCell id="sCJPsLTUghXRObpwkUzK-165" value="M[AR] &amp;lt;-- DR,&amp;nbsp;&lt;div&gt;IF (DR = 0) THEN PC &amp;lt;-- PC + 1,&lt;/div&gt;&lt;div&gt;SC &amp;lt;-- 0&lt;/div&gt;" style="rounded=0;whiteSpace=wrap;html=1;" parent="1" vertex="1">
          <mxGeometry x="332.52" y="3810.03" width="259.97" height="60" as="geometry" />
        </mxCell>
        <mxCell id="sCJPsLTUghXRObpwkUzK-167" value="D6 T 6" style="text;html=1;align=center;verticalAlign=middle;whiteSpace=wrap;rounded=0;" parent="1" vertex="1">
          <mxGeometry x="467.47" y="3780.03" width="60" height="30" as="geometry" />
        </mxCell>
        <mxCell id="sCJPsLTUghXRObpwkUzK-285" style="edgeStyle=orthogonalEdgeStyle;rounded=0;orthogonalLoop=1;jettySize=auto;html=1;exitX=1;exitY=0.25;exitDx=0;exitDy=0;entryX=0;entryY=0.5;entryDx=0;entryDy=0;" parent="1" source="sCJPsLTUghXRObpwkUzK-170" target="sCJPsLTUghXRObpwkUzK-206" edge="1">
          <mxGeometry relative="1" as="geometry" />
        </mxCell>
        <mxCell id="sCJPsLTUghXRObpwkUzK-170" value="a0&lt;div&gt;&lt;br&gt;&lt;/div&gt;&lt;div&gt;&lt;br&gt;&lt;/div&gt;&lt;div&gt;&lt;br&gt;&lt;/div&gt;&lt;div&gt;a1&lt;/div&gt;&lt;div&gt;&lt;br&gt;&lt;/div&gt;&lt;div&gt;&lt;br&gt;&lt;/div&gt;&lt;div&gt;&lt;br&gt;&lt;/div&gt;&lt;div&gt;a2&lt;/div&gt;&lt;div&gt;&lt;br&gt;&lt;/div&gt;&lt;div&gt;&lt;br&gt;&lt;/div&gt;&lt;div&gt;&lt;br&gt;&lt;/div&gt;&lt;div&gt;a3&lt;/div&gt;&lt;div&gt;&lt;br&gt;&lt;/div&gt;&lt;div&gt;&lt;br&gt;&lt;/div&gt;&lt;div&gt;&lt;br&gt;&lt;/div&gt;&lt;div&gt;a4&lt;/div&gt;&lt;div&gt;&lt;br&gt;&lt;/div&gt;&lt;div&gt;&lt;br&gt;&lt;/div&gt;&lt;div&gt;&lt;br&gt;&lt;/div&gt;&lt;div&gt;a5&lt;/div&gt;" style="rounded=0;whiteSpace=wrap;html=1;" parent="1" vertex="1">
          <mxGeometry x="-120" y="3980" width="120" height="330" as="geometry" />
        </mxCell>
        <mxCell id="sCJPsLTUghXRObpwkUzK-171" value="Register A" style="text;html=1;align=center;verticalAlign=middle;whiteSpace=wrap;rounded=0;" parent="1" vertex="1">
          <mxGeometry x="-90" y="3950" width="60" height="30" as="geometry" />
        </mxCell>
        <mxCell id="sCJPsLTUghXRObpwkUzK-172" value="b0&lt;div&gt;&lt;br&gt;&lt;/div&gt;&lt;div&gt;&lt;br&gt;&lt;/div&gt;&lt;div&gt;&lt;br&gt;&lt;/div&gt;&lt;div&gt;b1&lt;/div&gt;&lt;div&gt;&lt;br&gt;&lt;/div&gt;&lt;div&gt;&lt;br&gt;&lt;/div&gt;&lt;div&gt;&lt;br&gt;&lt;/div&gt;&lt;div&gt;b2&lt;/div&gt;&lt;div&gt;&lt;br&gt;&lt;/div&gt;&lt;div&gt;&lt;br&gt;&lt;/div&gt;&lt;div&gt;&lt;br&gt;&lt;/div&gt;&lt;div&gt;b3&lt;/div&gt;&lt;div&gt;&lt;br&gt;&lt;/div&gt;&lt;div&gt;&lt;br&gt;&lt;/div&gt;&lt;div&gt;&lt;br&gt;&lt;/div&gt;&lt;div&gt;b4&lt;/div&gt;&lt;div&gt;&lt;br&gt;&lt;/div&gt;&lt;div&gt;&lt;br&gt;&lt;/div&gt;&lt;div&gt;&lt;br&gt;&lt;/div&gt;&lt;div&gt;b5&lt;/div&gt;" style="rounded=0;whiteSpace=wrap;html=1;" parent="1" vertex="1">
          <mxGeometry x="-120" y="4360" width="120" height="330" as="geometry" />
        </mxCell>
        <mxCell id="sCJPsLTUghXRObpwkUzK-173" value="Register B" style="text;html=1;align=center;verticalAlign=middle;whiteSpace=wrap;rounded=0;" parent="1" vertex="1">
          <mxGeometry x="-90" y="4330" width="60" height="30" as="geometry" />
        </mxCell>
        <mxCell id="sCJPsLTUghXRObpwkUzK-174" value="c0&lt;div&gt;&lt;br&gt;&lt;/div&gt;&lt;div&gt;&lt;br&gt;&lt;/div&gt;&lt;div&gt;&lt;br&gt;&lt;/div&gt;&lt;div&gt;c1&lt;/div&gt;&lt;div&gt;&lt;br&gt;&lt;/div&gt;&lt;div&gt;&lt;br&gt;&lt;/div&gt;&lt;div&gt;&lt;br&gt;&lt;/div&gt;&lt;div&gt;c2&lt;/div&gt;&lt;div&gt;&lt;br&gt;&lt;/div&gt;&lt;div&gt;&lt;br&gt;&lt;/div&gt;&lt;div&gt;&lt;br&gt;&lt;/div&gt;&lt;div&gt;c3&lt;/div&gt;&lt;div&gt;&lt;br&gt;&lt;/div&gt;&lt;div&gt;&lt;br&gt;&lt;/div&gt;&lt;div&gt;&lt;br&gt;&lt;/div&gt;&lt;div&gt;c4&lt;/div&gt;&lt;div&gt;&lt;br&gt;&lt;/div&gt;&lt;div&gt;&lt;br&gt;&lt;/div&gt;&lt;div&gt;&lt;br&gt;&lt;/div&gt;&lt;div&gt;c5&lt;/div&gt;" style="rounded=0;whiteSpace=wrap;html=1;" parent="1" vertex="1">
          <mxGeometry x="-130" y="4820" width="120" height="330" as="geometry" />
        </mxCell>
        <mxCell id="sCJPsLTUghXRObpwkUzK-175" value="Register C" style="text;html=1;align=center;verticalAlign=middle;whiteSpace=wrap;rounded=0;" parent="1" vertex="1">
          <mxGeometry x="-100" y="4790" width="60" height="30" as="geometry" />
        </mxCell>
        <mxCell id="sCJPsLTUghXRObpwkUzK-176" value="d0&lt;div&gt;&lt;br&gt;&lt;/div&gt;&lt;div&gt;&lt;br&gt;&lt;/div&gt;&lt;div&gt;&lt;br&gt;&lt;/div&gt;&lt;div&gt;d1&lt;/div&gt;&lt;div&gt;&lt;br&gt;&lt;/div&gt;&lt;div&gt;&lt;br&gt;&lt;/div&gt;&lt;div&gt;&lt;br&gt;&lt;/div&gt;&lt;div&gt;d2&lt;/div&gt;&lt;div&gt;&lt;br&gt;&lt;/div&gt;&lt;div&gt;&lt;br&gt;&lt;/div&gt;&lt;div&gt;&lt;br&gt;&lt;/div&gt;&lt;div&gt;d3&lt;/div&gt;&lt;div&gt;&lt;br&gt;&lt;/div&gt;&lt;div&gt;&lt;br&gt;&lt;/div&gt;&lt;div&gt;&lt;br&gt;&lt;/div&gt;&lt;div&gt;d4&lt;/div&gt;&lt;div&gt;&lt;br&gt;&lt;/div&gt;&lt;div&gt;&lt;br&gt;&lt;/div&gt;&lt;div&gt;&lt;br&gt;&lt;/div&gt;&lt;div&gt;d5&lt;/div&gt;" style="rounded=0;whiteSpace=wrap;html=1;" parent="1" vertex="1">
          <mxGeometry x="-130" y="5250" width="120" height="330" as="geometry" />
        </mxCell>
        <mxCell id="sCJPsLTUghXRObpwkUzK-177" value="Register D" style="text;html=1;align=center;verticalAlign=middle;whiteSpace=wrap;rounded=0;" parent="1" vertex="1">
          <mxGeometry x="-100" y="5220" width="60" height="30" as="geometry" />
        </mxCell>
        <mxCell id="sCJPsLTUghXRObpwkUzK-178" value="e0&lt;div&gt;&lt;br&gt;&lt;/div&gt;&lt;div&gt;&lt;br&gt;&lt;/div&gt;&lt;div&gt;&lt;br&gt;&lt;/div&gt;&lt;div&gt;e1&lt;/div&gt;&lt;div&gt;&lt;br&gt;&lt;/div&gt;&lt;div&gt;&lt;br&gt;&lt;/div&gt;&lt;div&gt;&lt;br&gt;&lt;/div&gt;&lt;div&gt;e2&lt;/div&gt;&lt;div&gt;&lt;br&gt;&lt;/div&gt;&lt;div&gt;&lt;br&gt;&lt;/div&gt;&lt;div&gt;&lt;br&gt;&lt;/div&gt;&lt;div&gt;e3&lt;/div&gt;&lt;div&gt;&lt;br&gt;&lt;/div&gt;&lt;div&gt;&lt;br&gt;&lt;/div&gt;&lt;div&gt;&lt;br&gt;&lt;/div&gt;&lt;div&gt;e4&lt;/div&gt;&lt;div&gt;&lt;br&gt;&lt;/div&gt;&lt;div&gt;&lt;br&gt;&lt;/div&gt;&lt;div&gt;&lt;br&gt;&lt;/div&gt;&lt;div&gt;e5&lt;/div&gt;" style="rounded=0;whiteSpace=wrap;html=1;" parent="1" vertex="1">
          <mxGeometry x="-130" y="5650" width="120" height="330" as="geometry" />
        </mxCell>
        <mxCell id="sCJPsLTUghXRObpwkUzK-179" value="Register E" style="text;html=1;align=center;verticalAlign=middle;whiteSpace=wrap;rounded=0;" parent="1" vertex="1">
          <mxGeometry x="-100" y="5620" width="60" height="30" as="geometry" />
        </mxCell>
        <mxCell id="sCJPsLTUghXRObpwkUzK-180" value="f0&lt;div&gt;&lt;br&gt;&lt;/div&gt;&lt;div&gt;&lt;br&gt;&lt;/div&gt;&lt;div&gt;&lt;br&gt;&lt;/div&gt;&lt;div&gt;f1&lt;/div&gt;&lt;div&gt;&lt;br&gt;&lt;/div&gt;&lt;div&gt;&lt;br&gt;&lt;/div&gt;&lt;div&gt;&lt;br&gt;&lt;/div&gt;&lt;div&gt;f2&lt;/div&gt;&lt;div&gt;&lt;br&gt;&lt;/div&gt;&lt;div&gt;&lt;br&gt;&lt;/div&gt;&lt;div&gt;&lt;br&gt;&lt;/div&gt;&lt;div&gt;f3&lt;/div&gt;&lt;div&gt;&lt;br&gt;&lt;/div&gt;&lt;div&gt;&lt;br&gt;&lt;/div&gt;&lt;div&gt;&lt;br&gt;&lt;/div&gt;&lt;div&gt;f4&lt;/div&gt;&lt;div&gt;&lt;br&gt;&lt;/div&gt;&lt;div&gt;&lt;br&gt;&lt;/div&gt;&lt;div&gt;&lt;br&gt;&lt;/div&gt;&lt;div&gt;f5&lt;/div&gt;" style="rounded=0;whiteSpace=wrap;html=1;" parent="1" vertex="1">
          <mxGeometry x="-140" y="6120" width="120" height="330" as="geometry" />
        </mxCell>
        <mxCell id="sCJPsLTUghXRObpwkUzK-181" value="Register F" style="text;html=1;align=center;verticalAlign=middle;whiteSpace=wrap;rounded=0;" parent="1" vertex="1">
          <mxGeometry x="-100" y="6090" width="60" height="30" as="geometry" />
        </mxCell>
        <mxCell id="sCJPsLTUghXRObpwkUzK-320" style="edgeStyle=orthogonalEdgeStyle;rounded=0;orthogonalLoop=1;jettySize=auto;html=1;" parent="1" source="sCJPsLTUghXRObpwkUzK-184" edge="1">
          <mxGeometry relative="1" as="geometry">
            <mxPoint x="1220" y="4540" as="targetPoint" />
            <Array as="points">
              <mxPoint x="860" y="4110" />
              <mxPoint x="860" y="4540" />
              <mxPoint x="1050" y="4540" />
            </Array>
          </mxGeometry>
        </mxCell>
        <mxCell id="sCJPsLTUghXRObpwkUzK-184" value="" style="rounded=0;whiteSpace=wrap;html=1;" parent="1" vertex="1">
          <mxGeometry x="402.5" y="3940" width="167.5" height="340" as="geometry" />
        </mxCell>
        <mxCell id="sCJPsLTUghXRObpwkUzK-185" value="mux 8 *1" style="text;html=1;align=center;verticalAlign=middle;whiteSpace=wrap;rounded=0;" parent="1" vertex="1">
          <mxGeometry x="432.5" y="3910" width="60" height="30" as="geometry" />
        </mxCell>
        <mxCell id="sCJPsLTUghXRObpwkUzK-186" value="000" style="text;html=1;align=center;verticalAlign=middle;whiteSpace=wrap;rounded=0;" parent="1" vertex="1">
          <mxGeometry x="400.5" y="3960" width="60" height="30" as="geometry" />
        </mxCell>
        <mxCell id="sCJPsLTUghXRObpwkUzK-187" value="001" style="text;html=1;align=center;verticalAlign=middle;whiteSpace=wrap;rounded=0;" parent="1" vertex="1">
          <mxGeometry x="400.5" y="4000" width="60" height="30" as="geometry" />
        </mxCell>
        <mxCell id="sCJPsLTUghXRObpwkUzK-189" value="010" style="text;html=1;align=center;verticalAlign=middle;whiteSpace=wrap;rounded=0;" parent="1" vertex="1">
          <mxGeometry x="400.5" y="4040" width="60" height="30" as="geometry" />
        </mxCell>
        <mxCell id="sCJPsLTUghXRObpwkUzK-190" value="011" style="text;html=1;align=center;verticalAlign=middle;whiteSpace=wrap;rounded=0;" parent="1" vertex="1">
          <mxGeometry x="400.5" y="4080" width="60" height="30" as="geometry" />
        </mxCell>
        <mxCell id="sCJPsLTUghXRObpwkUzK-191" value="100" style="text;html=1;align=center;verticalAlign=middle;whiteSpace=wrap;rounded=0;" parent="1" vertex="1">
          <mxGeometry x="400" y="4120" width="60" height="30" as="geometry" />
        </mxCell>
        <mxCell id="sCJPsLTUghXRObpwkUzK-192" value="101" style="text;html=1;align=center;verticalAlign=middle;whiteSpace=wrap;rounded=0;" parent="1" vertex="1">
          <mxGeometry x="400.5" y="4160" width="60" height="30" as="geometry" />
        </mxCell>
        <mxCell id="sCJPsLTUghXRObpwkUzK-193" value="110" style="text;html=1;align=center;verticalAlign=middle;whiteSpace=wrap;rounded=0;" parent="1" vertex="1">
          <mxGeometry x="400" y="4200" width="60" height="30" as="geometry" />
        </mxCell>
        <mxCell id="sCJPsLTUghXRObpwkUzK-194" value="111" style="text;html=1;align=center;verticalAlign=middle;whiteSpace=wrap;rounded=0;" parent="1" vertex="1">
          <mxGeometry x="400" y="4240" width="60" height="30" as="geometry" />
        </mxCell>
        <mxCell id="sCJPsLTUghXRObpwkUzK-198" value="" style="endArrow=none;html=1;rounded=0;edgeStyle=orthogonalEdgeStyle;entryX=0.222;entryY=1.003;entryDx=0;entryDy=0;entryPerimeter=0;" parent="1" edge="1">
          <mxGeometry width="50" height="50" relative="1" as="geometry">
            <mxPoint x="480" y="4320" as="sourcePoint" />
            <mxPoint x="480" y="4281" as="targetPoint" />
          </mxGeometry>
        </mxCell>
        <mxCell id="sCJPsLTUghXRObpwkUzK-199" value="" style="endArrow=none;html=1;rounded=0;edgeStyle=orthogonalEdgeStyle;entryX=0.222;entryY=1.003;entryDx=0;entryDy=0;entryPerimeter=0;" parent="1" edge="1">
          <mxGeometry width="50" height="50" relative="1" as="geometry">
            <mxPoint x="440" y="4320" as="sourcePoint" />
            <mxPoint x="440" y="4281" as="targetPoint" />
          </mxGeometry>
        </mxCell>
        <mxCell id="sCJPsLTUghXRObpwkUzK-200" value="" style="endArrow=none;html=1;rounded=0;edgeStyle=orthogonalEdgeStyle;entryX=0.222;entryY=1.003;entryDx=0;entryDy=0;entryPerimeter=0;" parent="1" edge="1">
          <mxGeometry width="50" height="50" relative="1" as="geometry">
            <mxPoint x="520.23" y="4320" as="sourcePoint" />
            <mxPoint x="520.23" y="4281" as="targetPoint" />
          </mxGeometry>
        </mxCell>
        <mxCell id="sCJPsLTUghXRObpwkUzK-201" value="s0" style="text;html=1;align=center;verticalAlign=middle;whiteSpace=wrap;rounded=0;" parent="1" vertex="1">
          <mxGeometry x="412.47" y="4310" width="60" height="30" as="geometry" />
        </mxCell>
        <mxCell id="sCJPsLTUghXRObpwkUzK-202" value="s1" style="text;html=1;align=center;verticalAlign=middle;whiteSpace=wrap;rounded=0;" parent="1" vertex="1">
          <mxGeometry x="451.25" y="4310" width="60" height="30" as="geometry" />
        </mxCell>
        <mxCell id="sCJPsLTUghXRObpwkUzK-203" value="s2" style="text;html=1;align=center;verticalAlign=middle;whiteSpace=wrap;rounded=0;" parent="1" vertex="1">
          <mxGeometry x="490" y="4310" width="60" height="30" as="geometry" />
        </mxCell>
        <mxCell id="sCJPsLTUghXRObpwkUzK-321" style="edgeStyle=orthogonalEdgeStyle;rounded=0;orthogonalLoop=1;jettySize=auto;html=1;" parent="1" source="sCJPsLTUghXRObpwkUzK-204" edge="1">
          <mxGeometry relative="1" as="geometry">
            <mxPoint x="1210" y="4700" as="targetPoint" />
            <Array as="points">
              <mxPoint x="850" y="4610" />
              <mxPoint x="850" y="4700" />
              <mxPoint x="1180" y="4700" />
            </Array>
          </mxGeometry>
        </mxCell>
        <mxCell id="sCJPsLTUghXRObpwkUzK-204" value="" style="rounded=0;whiteSpace=wrap;html=1;" parent="1" vertex="1">
          <mxGeometry x="398.75" y="4370" width="167.5" height="340" as="geometry" />
        </mxCell>
        <mxCell id="sCJPsLTUghXRObpwkUzK-205" value="mux 8 *1" style="text;html=1;align=center;verticalAlign=middle;whiteSpace=wrap;rounded=0;" parent="1" vertex="1">
          <mxGeometry x="428.75" y="4340" width="60" height="30" as="geometry" />
        </mxCell>
        <mxCell id="sCJPsLTUghXRObpwkUzK-206" value="000" style="text;html=1;align=center;verticalAlign=middle;whiteSpace=wrap;rounded=0;" parent="1" vertex="1">
          <mxGeometry x="396.75" y="4390" width="60" height="30" as="geometry" />
        </mxCell>
        <mxCell id="sCJPsLTUghXRObpwkUzK-207" value="001" style="text;html=1;align=center;verticalAlign=middle;whiteSpace=wrap;rounded=0;" parent="1" vertex="1">
          <mxGeometry x="396.75" y="4430" width="60" height="30" as="geometry" />
        </mxCell>
        <mxCell id="sCJPsLTUghXRObpwkUzK-208" value="010" style="text;html=1;align=center;verticalAlign=middle;whiteSpace=wrap;rounded=0;" parent="1" vertex="1">
          <mxGeometry x="396.75" y="4470" width="60" height="30" as="geometry" />
        </mxCell>
        <mxCell id="sCJPsLTUghXRObpwkUzK-209" value="011" style="text;html=1;align=center;verticalAlign=middle;whiteSpace=wrap;rounded=0;" parent="1" vertex="1">
          <mxGeometry x="396.75" y="4510" width="60" height="30" as="geometry" />
        </mxCell>
        <mxCell id="sCJPsLTUghXRObpwkUzK-210" value="100" style="text;html=1;align=center;verticalAlign=middle;whiteSpace=wrap;rounded=0;" parent="1" vertex="1">
          <mxGeometry x="396.25" y="4550" width="60" height="30" as="geometry" />
        </mxCell>
        <mxCell id="sCJPsLTUghXRObpwkUzK-211" value="101" style="text;html=1;align=center;verticalAlign=middle;whiteSpace=wrap;rounded=0;" parent="1" vertex="1">
          <mxGeometry x="396.75" y="4590" width="60" height="30" as="geometry" />
        </mxCell>
        <mxCell id="sCJPsLTUghXRObpwkUzK-212" value="110" style="text;html=1;align=center;verticalAlign=middle;whiteSpace=wrap;rounded=0;" parent="1" vertex="1">
          <mxGeometry x="396.25" y="4630" width="60" height="30" as="geometry" />
        </mxCell>
        <mxCell id="sCJPsLTUghXRObpwkUzK-213" value="111" style="text;html=1;align=center;verticalAlign=middle;whiteSpace=wrap;rounded=0;" parent="1" vertex="1">
          <mxGeometry x="396.25" y="4670" width="60" height="30" as="geometry" />
        </mxCell>
        <mxCell id="sCJPsLTUghXRObpwkUzK-214" value="" style="endArrow=none;html=1;rounded=0;edgeStyle=orthogonalEdgeStyle;entryX=0.222;entryY=1.003;entryDx=0;entryDy=0;entryPerimeter=0;" parent="1" edge="1">
          <mxGeometry width="50" height="50" relative="1" as="geometry">
            <mxPoint x="476.25" y="4750" as="sourcePoint" />
            <mxPoint x="476.25" y="4711" as="targetPoint" />
          </mxGeometry>
        </mxCell>
        <mxCell id="sCJPsLTUghXRObpwkUzK-215" value="" style="endArrow=none;html=1;rounded=0;edgeStyle=orthogonalEdgeStyle;entryX=0.222;entryY=1.003;entryDx=0;entryDy=0;entryPerimeter=0;" parent="1" edge="1">
          <mxGeometry width="50" height="50" relative="1" as="geometry">
            <mxPoint x="436.25" y="4750" as="sourcePoint" />
            <mxPoint x="436.25" y="4711" as="targetPoint" />
          </mxGeometry>
        </mxCell>
        <mxCell id="sCJPsLTUghXRObpwkUzK-216" value="" style="endArrow=none;html=1;rounded=0;edgeStyle=orthogonalEdgeStyle;entryX=0.222;entryY=1.003;entryDx=0;entryDy=0;entryPerimeter=0;" parent="1" edge="1">
          <mxGeometry width="50" height="50" relative="1" as="geometry">
            <mxPoint x="516.48" y="4750" as="sourcePoint" />
            <mxPoint x="516.48" y="4711" as="targetPoint" />
          </mxGeometry>
        </mxCell>
        <mxCell id="sCJPsLTUghXRObpwkUzK-217" value="s0" style="text;html=1;align=center;verticalAlign=middle;whiteSpace=wrap;rounded=0;" parent="1" vertex="1">
          <mxGeometry x="408.72" y="4740" width="60" height="30" as="geometry" />
        </mxCell>
        <mxCell id="sCJPsLTUghXRObpwkUzK-218" value="s1" style="text;html=1;align=center;verticalAlign=middle;whiteSpace=wrap;rounded=0;" parent="1" vertex="1">
          <mxGeometry x="447.5" y="4740" width="60" height="30" as="geometry" />
        </mxCell>
        <mxCell id="sCJPsLTUghXRObpwkUzK-219" value="s2" style="text;html=1;align=center;verticalAlign=middle;whiteSpace=wrap;rounded=0;" parent="1" vertex="1">
          <mxGeometry x="486.25" y="4740" width="60" height="30" as="geometry" />
        </mxCell>
        <mxCell id="sCJPsLTUghXRObpwkUzK-322" style="edgeStyle=orthogonalEdgeStyle;rounded=0;orthogonalLoop=1;jettySize=auto;html=1;" parent="1" source="sCJPsLTUghXRObpwkUzK-220" edge="1">
          <mxGeometry relative="1" as="geometry">
            <mxPoint x="1200" y="4980" as="targetPoint" />
          </mxGeometry>
        </mxCell>
        <mxCell id="sCJPsLTUghXRObpwkUzK-220" value="" style="rounded=0;whiteSpace=wrap;html=1;" parent="1" vertex="1">
          <mxGeometry x="392.5" y="4800" width="167.5" height="340" as="geometry" />
        </mxCell>
        <mxCell id="sCJPsLTUghXRObpwkUzK-221" value="mux 8 *1" style="text;html=1;align=center;verticalAlign=middle;whiteSpace=wrap;rounded=0;" parent="1" vertex="1">
          <mxGeometry x="422.5" y="4770" width="60" height="30" as="geometry" />
        </mxCell>
        <mxCell id="sCJPsLTUghXRObpwkUzK-222" value="000" style="text;html=1;align=center;verticalAlign=middle;whiteSpace=wrap;rounded=0;" parent="1" vertex="1">
          <mxGeometry x="390.5" y="4820" width="60" height="30" as="geometry" />
        </mxCell>
        <mxCell id="sCJPsLTUghXRObpwkUzK-223" value="001" style="text;html=1;align=center;verticalAlign=middle;whiteSpace=wrap;rounded=0;" parent="1" vertex="1">
          <mxGeometry x="390.5" y="4860" width="60" height="30" as="geometry" />
        </mxCell>
        <mxCell id="sCJPsLTUghXRObpwkUzK-224" value="010" style="text;html=1;align=center;verticalAlign=middle;whiteSpace=wrap;rounded=0;" parent="1" vertex="1">
          <mxGeometry x="390.5" y="4900" width="60" height="30" as="geometry" />
        </mxCell>
        <mxCell id="sCJPsLTUghXRObpwkUzK-225" value="011" style="text;html=1;align=center;verticalAlign=middle;whiteSpace=wrap;rounded=0;" parent="1" vertex="1">
          <mxGeometry x="390.5" y="4940" width="60" height="30" as="geometry" />
        </mxCell>
        <mxCell id="sCJPsLTUghXRObpwkUzK-226" value="100" style="text;html=1;align=center;verticalAlign=middle;whiteSpace=wrap;rounded=0;" parent="1" vertex="1">
          <mxGeometry x="390" y="4980" width="60" height="30" as="geometry" />
        </mxCell>
        <mxCell id="sCJPsLTUghXRObpwkUzK-227" value="101" style="text;html=1;align=center;verticalAlign=middle;whiteSpace=wrap;rounded=0;" parent="1" vertex="1">
          <mxGeometry x="390.5" y="5020" width="60" height="30" as="geometry" />
        </mxCell>
        <mxCell id="sCJPsLTUghXRObpwkUzK-228" value="110" style="text;html=1;align=center;verticalAlign=middle;whiteSpace=wrap;rounded=0;" parent="1" vertex="1">
          <mxGeometry x="390" y="5060" width="60" height="30" as="geometry" />
        </mxCell>
        <mxCell id="sCJPsLTUghXRObpwkUzK-229" value="111" style="text;html=1;align=center;verticalAlign=middle;whiteSpace=wrap;rounded=0;" parent="1" vertex="1">
          <mxGeometry x="390" y="5100" width="60" height="30" as="geometry" />
        </mxCell>
        <mxCell id="sCJPsLTUghXRObpwkUzK-230" value="" style="endArrow=none;html=1;rounded=0;edgeStyle=orthogonalEdgeStyle;entryX=0.222;entryY=1.003;entryDx=0;entryDy=0;entryPerimeter=0;" parent="1" edge="1">
          <mxGeometry width="50" height="50" relative="1" as="geometry">
            <mxPoint x="470" y="5180" as="sourcePoint" />
            <mxPoint x="470" y="5141" as="targetPoint" />
          </mxGeometry>
        </mxCell>
        <mxCell id="sCJPsLTUghXRObpwkUzK-231" value="" style="endArrow=none;html=1;rounded=0;edgeStyle=orthogonalEdgeStyle;entryX=0.222;entryY=1.003;entryDx=0;entryDy=0;entryPerimeter=0;" parent="1" edge="1">
          <mxGeometry width="50" height="50" relative="1" as="geometry">
            <mxPoint x="430" y="5180" as="sourcePoint" />
            <mxPoint x="430" y="5141" as="targetPoint" />
          </mxGeometry>
        </mxCell>
        <mxCell id="sCJPsLTUghXRObpwkUzK-232" value="" style="endArrow=none;html=1;rounded=0;edgeStyle=orthogonalEdgeStyle;entryX=0.222;entryY=1.003;entryDx=0;entryDy=0;entryPerimeter=0;" parent="1" edge="1">
          <mxGeometry width="50" height="50" relative="1" as="geometry">
            <mxPoint x="510.23" y="5180" as="sourcePoint" />
            <mxPoint x="510.23" y="5141" as="targetPoint" />
          </mxGeometry>
        </mxCell>
        <mxCell id="sCJPsLTUghXRObpwkUzK-233" value="s0" style="text;html=1;align=center;verticalAlign=middle;whiteSpace=wrap;rounded=0;" parent="1" vertex="1">
          <mxGeometry x="402.47" y="5170" width="60" height="30" as="geometry" />
        </mxCell>
        <mxCell id="sCJPsLTUghXRObpwkUzK-234" value="s1" style="text;html=1;align=center;verticalAlign=middle;whiteSpace=wrap;rounded=0;" parent="1" vertex="1">
          <mxGeometry x="441.25" y="5170" width="60" height="30" as="geometry" />
        </mxCell>
        <mxCell id="sCJPsLTUghXRObpwkUzK-235" value="s2" style="text;html=1;align=center;verticalAlign=middle;whiteSpace=wrap;rounded=0;" parent="1" vertex="1">
          <mxGeometry x="480" y="5170" width="60" height="30" as="geometry" />
        </mxCell>
        <mxCell id="sCJPsLTUghXRObpwkUzK-323" style="edgeStyle=orthogonalEdgeStyle;rounded=0;orthogonalLoop=1;jettySize=auto;html=1;" parent="1" source="sCJPsLTUghXRObpwkUzK-236" edge="1">
          <mxGeometry relative="1" as="geometry">
            <mxPoint x="1180" y="5110.000000000001" as="targetPoint" />
            <Array as="points">
              <mxPoint x="960" y="5330" />
              <mxPoint x="960" y="5110" />
            </Array>
          </mxGeometry>
        </mxCell>
        <mxCell id="sCJPsLTUghXRObpwkUzK-236" value="" style="rounded=0;whiteSpace=wrap;html=1;" parent="1" vertex="1">
          <mxGeometry x="380" y="5220" width="167.5" height="340" as="geometry" />
        </mxCell>
        <mxCell id="sCJPsLTUghXRObpwkUzK-237" value="mux 8 *1" style="text;html=1;align=center;verticalAlign=middle;whiteSpace=wrap;rounded=0;" parent="1" vertex="1">
          <mxGeometry x="410" y="5190" width="60" height="30" as="geometry" />
        </mxCell>
        <mxCell id="sCJPsLTUghXRObpwkUzK-238" value="000" style="text;html=1;align=center;verticalAlign=middle;whiteSpace=wrap;rounded=0;" parent="1" vertex="1">
          <mxGeometry x="378" y="5240" width="60" height="30" as="geometry" />
        </mxCell>
        <mxCell id="sCJPsLTUghXRObpwkUzK-239" value="001" style="text;html=1;align=center;verticalAlign=middle;whiteSpace=wrap;rounded=0;" parent="1" vertex="1">
          <mxGeometry x="378" y="5280" width="60" height="30" as="geometry" />
        </mxCell>
        <mxCell id="sCJPsLTUghXRObpwkUzK-240" value="010" style="text;html=1;align=center;verticalAlign=middle;whiteSpace=wrap;rounded=0;" parent="1" vertex="1">
          <mxGeometry x="378" y="5320" width="60" height="30" as="geometry" />
        </mxCell>
        <mxCell id="sCJPsLTUghXRObpwkUzK-241" value="011" style="text;html=1;align=center;verticalAlign=middle;whiteSpace=wrap;rounded=0;" parent="1" vertex="1">
          <mxGeometry x="378" y="5360" width="60" height="30" as="geometry" />
        </mxCell>
        <mxCell id="sCJPsLTUghXRObpwkUzK-242" value="100" style="text;html=1;align=center;verticalAlign=middle;whiteSpace=wrap;rounded=0;" parent="1" vertex="1">
          <mxGeometry x="377.5" y="5400" width="60" height="30" as="geometry" />
        </mxCell>
        <mxCell id="sCJPsLTUghXRObpwkUzK-243" value="101" style="text;html=1;align=center;verticalAlign=middle;whiteSpace=wrap;rounded=0;" parent="1" vertex="1">
          <mxGeometry x="378" y="5440" width="60" height="30" as="geometry" />
        </mxCell>
        <mxCell id="sCJPsLTUghXRObpwkUzK-244" value="110" style="text;html=1;align=center;verticalAlign=middle;whiteSpace=wrap;rounded=0;" parent="1" vertex="1">
          <mxGeometry x="377.5" y="5480" width="60" height="30" as="geometry" />
        </mxCell>
        <mxCell id="sCJPsLTUghXRObpwkUzK-245" value="111" style="text;html=1;align=center;verticalAlign=middle;whiteSpace=wrap;rounded=0;" parent="1" vertex="1">
          <mxGeometry x="377.5" y="5520" width="60" height="30" as="geometry" />
        </mxCell>
        <mxCell id="sCJPsLTUghXRObpwkUzK-246" value="" style="endArrow=none;html=1;rounded=0;edgeStyle=orthogonalEdgeStyle;entryX=0.222;entryY=1.003;entryDx=0;entryDy=0;entryPerimeter=0;" parent="1" edge="1">
          <mxGeometry width="50" height="50" relative="1" as="geometry">
            <mxPoint x="457.5" y="5600" as="sourcePoint" />
            <mxPoint x="457.5" y="5561" as="targetPoint" />
          </mxGeometry>
        </mxCell>
        <mxCell id="sCJPsLTUghXRObpwkUzK-247" value="" style="endArrow=none;html=1;rounded=0;edgeStyle=orthogonalEdgeStyle;entryX=0.222;entryY=1.003;entryDx=0;entryDy=0;entryPerimeter=0;" parent="1" edge="1">
          <mxGeometry width="50" height="50" relative="1" as="geometry">
            <mxPoint x="417.5" y="5600" as="sourcePoint" />
            <mxPoint x="417.5" y="5561" as="targetPoint" />
          </mxGeometry>
        </mxCell>
        <mxCell id="sCJPsLTUghXRObpwkUzK-248" value="" style="endArrow=none;html=1;rounded=0;edgeStyle=orthogonalEdgeStyle;entryX=0.222;entryY=1.003;entryDx=0;entryDy=0;entryPerimeter=0;" parent="1" edge="1">
          <mxGeometry width="50" height="50" relative="1" as="geometry">
            <mxPoint x="497.73" y="5600" as="sourcePoint" />
            <mxPoint x="497.73" y="5561" as="targetPoint" />
          </mxGeometry>
        </mxCell>
        <mxCell id="sCJPsLTUghXRObpwkUzK-249" value="s0" style="text;html=1;align=center;verticalAlign=middle;whiteSpace=wrap;rounded=0;" parent="1" vertex="1">
          <mxGeometry x="389.97" y="5590" width="60" height="30" as="geometry" />
        </mxCell>
        <mxCell id="sCJPsLTUghXRObpwkUzK-250" value="s1" style="text;html=1;align=center;verticalAlign=middle;whiteSpace=wrap;rounded=0;" parent="1" vertex="1">
          <mxGeometry x="428.75" y="5590" width="60" height="30" as="geometry" />
        </mxCell>
        <mxCell id="sCJPsLTUghXRObpwkUzK-251" value="s2" style="text;html=1;align=center;verticalAlign=middle;whiteSpace=wrap;rounded=0;" parent="1" vertex="1">
          <mxGeometry x="467.5" y="5590" width="60" height="30" as="geometry" />
        </mxCell>
        <mxCell id="sCJPsLTUghXRObpwkUzK-324" style="edgeStyle=orthogonalEdgeStyle;rounded=0;orthogonalLoop=1;jettySize=auto;html=1;" parent="1" source="sCJPsLTUghXRObpwkUzK-252" edge="1">
          <mxGeometry relative="1" as="geometry">
            <mxPoint x="1170" y="5400.000000000001" as="targetPoint" />
            <Array as="points">
              <mxPoint x="830" y="5800" />
              <mxPoint x="830" y="5400" />
            </Array>
          </mxGeometry>
        </mxCell>
        <mxCell id="sCJPsLTUghXRObpwkUzK-252" value="" style="rounded=0;whiteSpace=wrap;html=1;" parent="1" vertex="1">
          <mxGeometry x="375" y="5630" width="167.5" height="340" as="geometry" />
        </mxCell>
        <mxCell id="sCJPsLTUghXRObpwkUzK-253" value="mux 8 *1" style="text;html=1;align=center;verticalAlign=middle;whiteSpace=wrap;rounded=0;" parent="1" vertex="1">
          <mxGeometry x="405" y="5600" width="60" height="30" as="geometry" />
        </mxCell>
        <mxCell id="sCJPsLTUghXRObpwkUzK-254" value="000" style="text;html=1;align=center;verticalAlign=middle;whiteSpace=wrap;rounded=0;" parent="1" vertex="1">
          <mxGeometry x="373" y="5650" width="60" height="30" as="geometry" />
        </mxCell>
        <mxCell id="sCJPsLTUghXRObpwkUzK-255" value="001" style="text;html=1;align=center;verticalAlign=middle;whiteSpace=wrap;rounded=0;" parent="1" vertex="1">
          <mxGeometry x="373" y="5690" width="60" height="30" as="geometry" />
        </mxCell>
        <mxCell id="sCJPsLTUghXRObpwkUzK-256" value="010" style="text;html=1;align=center;verticalAlign=middle;whiteSpace=wrap;rounded=0;" parent="1" vertex="1">
          <mxGeometry x="373" y="5730" width="60" height="30" as="geometry" />
        </mxCell>
        <mxCell id="sCJPsLTUghXRObpwkUzK-257" value="011" style="text;html=1;align=center;verticalAlign=middle;whiteSpace=wrap;rounded=0;" parent="1" vertex="1">
          <mxGeometry x="373" y="5770" width="60" height="30" as="geometry" />
        </mxCell>
        <mxCell id="sCJPsLTUghXRObpwkUzK-258" value="100" style="text;html=1;align=center;verticalAlign=middle;whiteSpace=wrap;rounded=0;" parent="1" vertex="1">
          <mxGeometry x="372.5" y="5810" width="60" height="30" as="geometry" />
        </mxCell>
        <mxCell id="sCJPsLTUghXRObpwkUzK-259" value="101" style="text;html=1;align=center;verticalAlign=middle;whiteSpace=wrap;rounded=0;" parent="1" vertex="1">
          <mxGeometry x="373" y="5850" width="60" height="30" as="geometry" />
        </mxCell>
        <mxCell id="sCJPsLTUghXRObpwkUzK-260" value="110" style="text;html=1;align=center;verticalAlign=middle;whiteSpace=wrap;rounded=0;" parent="1" vertex="1">
          <mxGeometry x="372.5" y="5890" width="60" height="30" as="geometry" />
        </mxCell>
        <mxCell id="sCJPsLTUghXRObpwkUzK-261" value="111" style="text;html=1;align=center;verticalAlign=middle;whiteSpace=wrap;rounded=0;" parent="1" vertex="1">
          <mxGeometry x="372.5" y="5930" width="60" height="30" as="geometry" />
        </mxCell>
        <mxCell id="sCJPsLTUghXRObpwkUzK-262" value="" style="endArrow=none;html=1;rounded=0;edgeStyle=orthogonalEdgeStyle;entryX=0.222;entryY=1.003;entryDx=0;entryDy=0;entryPerimeter=0;" parent="1" edge="1">
          <mxGeometry width="50" height="50" relative="1" as="geometry">
            <mxPoint x="452.5" y="6010" as="sourcePoint" />
            <mxPoint x="452.5" y="5971" as="targetPoint" />
          </mxGeometry>
        </mxCell>
        <mxCell id="sCJPsLTUghXRObpwkUzK-263" value="" style="endArrow=none;html=1;rounded=0;edgeStyle=orthogonalEdgeStyle;entryX=0.222;entryY=1.003;entryDx=0;entryDy=0;entryPerimeter=0;" parent="1" edge="1">
          <mxGeometry width="50" height="50" relative="1" as="geometry">
            <mxPoint x="412.5" y="6010" as="sourcePoint" />
            <mxPoint x="412.5" y="5971" as="targetPoint" />
          </mxGeometry>
        </mxCell>
        <mxCell id="sCJPsLTUghXRObpwkUzK-264" value="" style="endArrow=none;html=1;rounded=0;edgeStyle=orthogonalEdgeStyle;entryX=0.222;entryY=1.003;entryDx=0;entryDy=0;entryPerimeter=0;" parent="1" edge="1">
          <mxGeometry width="50" height="50" relative="1" as="geometry">
            <mxPoint x="492.73" y="6010" as="sourcePoint" />
            <mxPoint x="492.73" y="5971" as="targetPoint" />
          </mxGeometry>
        </mxCell>
        <mxCell id="sCJPsLTUghXRObpwkUzK-265" value="s0" style="text;html=1;align=center;verticalAlign=middle;whiteSpace=wrap;rounded=0;" parent="1" vertex="1">
          <mxGeometry x="384.97" y="6000" width="60" height="30" as="geometry" />
        </mxCell>
        <mxCell id="sCJPsLTUghXRObpwkUzK-266" value="s1" style="text;html=1;align=center;verticalAlign=middle;whiteSpace=wrap;rounded=0;" parent="1" vertex="1">
          <mxGeometry x="423.75" y="6000" width="60" height="30" as="geometry" />
        </mxCell>
        <mxCell id="sCJPsLTUghXRObpwkUzK-267" value="s2" style="text;html=1;align=center;verticalAlign=middle;whiteSpace=wrap;rounded=0;" parent="1" vertex="1">
          <mxGeometry x="462.5" y="6000" width="60" height="30" as="geometry" />
        </mxCell>
        <mxCell id="sCJPsLTUghXRObpwkUzK-325" style="edgeStyle=orthogonalEdgeStyle;rounded=0;orthogonalLoop=1;jettySize=auto;html=1;" parent="1" source="sCJPsLTUghXRObpwkUzK-268" edge="1">
          <mxGeometry relative="1" as="geometry">
            <mxPoint x="1170" y="5750.000000000001" as="targetPoint" />
            <Array as="points">
              <mxPoint x="920" y="6270" />
              <mxPoint x="920" y="5750" />
            </Array>
          </mxGeometry>
        </mxCell>
        <mxCell id="sCJPsLTUghXRObpwkUzK-268" value="" style="rounded=0;whiteSpace=wrap;html=1;" parent="1" vertex="1">
          <mxGeometry x="378.75" y="6100" width="167.5" height="340" as="geometry" />
        </mxCell>
        <mxCell id="sCJPsLTUghXRObpwkUzK-269" value="mux 8 *1" style="text;html=1;align=center;verticalAlign=middle;whiteSpace=wrap;rounded=0;" parent="1" vertex="1">
          <mxGeometry x="408.75" y="6070" width="60" height="30" as="geometry" />
        </mxCell>
        <mxCell id="sCJPsLTUghXRObpwkUzK-270" value="000" style="text;html=1;align=center;verticalAlign=middle;whiteSpace=wrap;rounded=0;" parent="1" vertex="1">
          <mxGeometry x="376.75" y="6120" width="60" height="30" as="geometry" />
        </mxCell>
        <mxCell id="sCJPsLTUghXRObpwkUzK-271" value="001" style="text;html=1;align=center;verticalAlign=middle;whiteSpace=wrap;rounded=0;" parent="1" vertex="1">
          <mxGeometry x="376.75" y="6160" width="60" height="30" as="geometry" />
        </mxCell>
        <mxCell id="sCJPsLTUghXRObpwkUzK-272" value="010" style="text;html=1;align=center;verticalAlign=middle;whiteSpace=wrap;rounded=0;" parent="1" vertex="1">
          <mxGeometry x="376.75" y="6200" width="60" height="30" as="geometry" />
        </mxCell>
        <mxCell id="sCJPsLTUghXRObpwkUzK-273" value="011" style="text;html=1;align=center;verticalAlign=middle;whiteSpace=wrap;rounded=0;" parent="1" vertex="1">
          <mxGeometry x="376.75" y="6240" width="60" height="30" as="geometry" />
        </mxCell>
        <mxCell id="sCJPsLTUghXRObpwkUzK-274" value="100" style="text;html=1;align=center;verticalAlign=middle;whiteSpace=wrap;rounded=0;" parent="1" vertex="1">
          <mxGeometry x="376.25" y="6280" width="60" height="30" as="geometry" />
        </mxCell>
        <mxCell id="sCJPsLTUghXRObpwkUzK-275" value="101" style="text;html=1;align=center;verticalAlign=middle;whiteSpace=wrap;rounded=0;" parent="1" vertex="1">
          <mxGeometry x="376.75" y="6320" width="60" height="30" as="geometry" />
        </mxCell>
        <mxCell id="sCJPsLTUghXRObpwkUzK-276" value="110" style="text;html=1;align=center;verticalAlign=middle;whiteSpace=wrap;rounded=0;" parent="1" vertex="1">
          <mxGeometry x="376.25" y="6360" width="60" height="30" as="geometry" />
        </mxCell>
        <mxCell id="sCJPsLTUghXRObpwkUzK-277" value="111" style="text;html=1;align=center;verticalAlign=middle;whiteSpace=wrap;rounded=0;" parent="1" vertex="1">
          <mxGeometry x="376.25" y="6400" width="60" height="30" as="geometry" />
        </mxCell>
        <mxCell id="sCJPsLTUghXRObpwkUzK-278" value="" style="endArrow=none;html=1;rounded=0;edgeStyle=orthogonalEdgeStyle;entryX=0.222;entryY=1.003;entryDx=0;entryDy=0;entryPerimeter=0;" parent="1" edge="1">
          <mxGeometry width="50" height="50" relative="1" as="geometry">
            <mxPoint x="456.25" y="6480" as="sourcePoint" />
            <mxPoint x="456.25" y="6441" as="targetPoint" />
          </mxGeometry>
        </mxCell>
        <mxCell id="sCJPsLTUghXRObpwkUzK-279" value="" style="endArrow=none;html=1;rounded=0;edgeStyle=orthogonalEdgeStyle;entryX=0.222;entryY=1.003;entryDx=0;entryDy=0;entryPerimeter=0;" parent="1" edge="1">
          <mxGeometry width="50" height="50" relative="1" as="geometry">
            <mxPoint x="416.25" y="6480" as="sourcePoint" />
            <mxPoint x="416.25" y="6441" as="targetPoint" />
          </mxGeometry>
        </mxCell>
        <mxCell id="sCJPsLTUghXRObpwkUzK-280" value="" style="endArrow=none;html=1;rounded=0;edgeStyle=orthogonalEdgeStyle;entryX=0.222;entryY=1.003;entryDx=0;entryDy=0;entryPerimeter=0;" parent="1" edge="1">
          <mxGeometry width="50" height="50" relative="1" as="geometry">
            <mxPoint x="496.48" y="6480" as="sourcePoint" />
            <mxPoint x="496.48" y="6441" as="targetPoint" />
          </mxGeometry>
        </mxCell>
        <mxCell id="sCJPsLTUghXRObpwkUzK-281" value="s0" style="text;html=1;align=center;verticalAlign=middle;whiteSpace=wrap;rounded=0;" parent="1" vertex="1">
          <mxGeometry x="388.72" y="6470" width="60" height="30" as="geometry" />
        </mxCell>
        <mxCell id="sCJPsLTUghXRObpwkUzK-282" value="s1" style="text;html=1;align=center;verticalAlign=middle;whiteSpace=wrap;rounded=0;" parent="1" vertex="1">
          <mxGeometry x="427.5" y="6470" width="60" height="30" as="geometry" />
        </mxCell>
        <mxCell id="sCJPsLTUghXRObpwkUzK-283" value="s2" style="text;html=1;align=center;verticalAlign=middle;whiteSpace=wrap;rounded=0;" parent="1" vertex="1">
          <mxGeometry x="466.25" y="6470" width="60" height="30" as="geometry" />
        </mxCell>
        <mxCell id="sCJPsLTUghXRObpwkUzK-284" value="" style="endArrow=classic;html=1;rounded=0;exitX=1;exitY=0.061;exitDx=0;exitDy=0;exitPerimeter=0;entryX=0;entryY=0.5;entryDx=0;entryDy=0;edgeStyle=elbowEdgeStyle;elbow=vertical;" parent="1" source="sCJPsLTUghXRObpwkUzK-170" target="sCJPsLTUghXRObpwkUzK-186" edge="1">
          <mxGeometry width="50" height="50" relative="1" as="geometry">
            <mxPoint x="160" y="4060" as="sourcePoint" />
            <mxPoint x="360" y="3970" as="targetPoint" />
          </mxGeometry>
        </mxCell>
        <mxCell id="sCJPsLTUghXRObpwkUzK-286" value="" style="endArrow=classic;html=1;rounded=0;exitX=1;exitY=0.397;exitDx=0;exitDy=0;exitPerimeter=0;entryX=0;entryY=0.5;entryDx=0;entryDy=0;edgeStyle=orthogonalEdgeStyle;" parent="1" source="sCJPsLTUghXRObpwkUzK-170" target="sCJPsLTUghXRObpwkUzK-222" edge="1">
          <mxGeometry width="50" height="50" relative="1" as="geometry">
            <mxPoint x="150" y="4170" as="sourcePoint" />
            <mxPoint x="200" y="4120" as="targetPoint" />
            <Array as="points">
              <mxPoint x="250" y="4121" />
              <mxPoint x="250" y="4835" />
            </Array>
          </mxGeometry>
        </mxCell>
        <mxCell id="sCJPsLTUghXRObpwkUzK-287" value="" style="endArrow=classic;html=1;rounded=0;exitX=1.006;exitY=0.602;exitDx=0;exitDy=0;exitPerimeter=0;entryX=0;entryY=0.5;entryDx=0;entryDy=0;edgeStyle=elbowEdgeStyle;" parent="1" source="sCJPsLTUghXRObpwkUzK-170" target="sCJPsLTUghXRObpwkUzK-238" edge="1">
          <mxGeometry width="50" height="50" relative="1" as="geometry">
            <mxPoint x="60" y="4230" as="sourcePoint" />
            <mxPoint x="110" y="4180" as="targetPoint" />
          </mxGeometry>
        </mxCell>
        <mxCell id="sCJPsLTUghXRObpwkUzK-288" value="" style="endArrow=classic;html=1;rounded=0;exitX=1;exitY=0.75;exitDx=0;exitDy=0;entryX=0;entryY=0.5;entryDx=0;entryDy=0;edgeStyle=elbowEdgeStyle;" parent="1" source="sCJPsLTUghXRObpwkUzK-170" target="sCJPsLTUghXRObpwkUzK-254" edge="1">
          <mxGeometry width="50" height="50" relative="1" as="geometry">
            <mxPoint x="1.75" y="4230" as="sourcePoint" />
            <mxPoint x="378.75" y="5306" as="targetPoint" />
            <Array as="points">
              <mxPoint x="170" y="4950" />
            </Array>
          </mxGeometry>
        </mxCell>
        <mxCell id="sCJPsLTUghXRObpwkUzK-289" value="" style="endArrow=classic;html=1;rounded=0;entryX=0;entryY=0.5;entryDx=0;entryDy=0;edgeStyle=elbowEdgeStyle;exitX=0.975;exitY=0.932;exitDx=0;exitDy=0;exitPerimeter=0;" parent="1" source="sCJPsLTUghXRObpwkUzK-170" target="sCJPsLTUghXRObpwkUzK-270" edge="1">
          <mxGeometry width="50" height="50" relative="1" as="geometry">
            <mxPoint x="-20" y="4240" as="sourcePoint" />
            <mxPoint x="353" y="5677" as="targetPoint" />
            <Array as="points">
              <mxPoint x="150" y="4962" />
            </Array>
          </mxGeometry>
        </mxCell>
        <mxCell id="sCJPsLTUghXRObpwkUzK-290" value="" style="endArrow=classic;html=1;rounded=0;exitX=0.965;exitY=0.072;exitDx=0;exitDy=0;exitPerimeter=0;entryX=0;entryY=0.5;entryDx=0;entryDy=0;edgeStyle=elbowEdgeStyle;fillColor=#60a917;strokeColor=#2D7600;" parent="1" source="sCJPsLTUghXRObpwkUzK-172" target="sCJPsLTUghXRObpwkUzK-187" edge="1">
          <mxGeometry width="50" height="50" relative="1" as="geometry">
            <mxPoint x="50" y="4450" as="sourcePoint" />
            <mxPoint x="100" y="4400" as="targetPoint" />
          </mxGeometry>
        </mxCell>
        <mxCell id="sCJPsLTUghXRObpwkUzK-291" value="" style="endArrow=classic;html=1;rounded=0;exitX=1;exitY=0.25;exitDx=0;exitDy=0;edgeStyle=elbowEdgeStyle;fillColor=#60a917;strokeColor=#2D7600;entryX=0;entryY=0.5;entryDx=0;entryDy=0;" parent="1" source="sCJPsLTUghXRObpwkUzK-172" target="sCJPsLTUghXRObpwkUzK-207" edge="1">
          <mxGeometry width="50" height="50" relative="1" as="geometry">
            <mxPoint x="10" y="4510" as="sourcePoint" />
            <mxPoint x="415" y="4141" as="targetPoint" />
            <Array as="points">
              <mxPoint x="210" y="4443" />
            </Array>
          </mxGeometry>
        </mxCell>
        <mxCell id="sCJPsLTUghXRObpwkUzK-292" value="" style="endArrow=classic;html=1;rounded=0;edgeStyle=elbowEdgeStyle;fillColor=#60a917;strokeColor=#2D7600;entryX=0;entryY=0.5;entryDx=0;entryDy=0;" parent="1" source="sCJPsLTUghXRObpwkUzK-172" target="sCJPsLTUghXRObpwkUzK-223" edge="1">
          <mxGeometry width="50" height="50" relative="1" as="geometry">
            <mxPoint x="3" y="4500" as="sourcePoint" />
            <mxPoint x="400" y="4502" as="targetPoint" />
            <Array as="points">
              <mxPoint x="213" y="4500" />
            </Array>
          </mxGeometry>
        </mxCell>
        <mxCell id="sCJPsLTUghXRObpwkUzK-293" value="" style="endArrow=classic;html=1;rounded=0;edgeStyle=elbowEdgeStyle;fillColor=#60a917;strokeColor=#2D7600;entryX=0;entryY=0.5;entryDx=0;entryDy=0;exitX=1.003;exitY=0.587;exitDx=0;exitDy=0;exitPerimeter=0;" parent="1" source="sCJPsLTUghXRObpwkUzK-172" target="sCJPsLTUghXRObpwkUzK-239" edge="1">
          <mxGeometry width="50" height="50" relative="1" as="geometry">
            <mxPoint x="5.75" y="4540" as="sourcePoint" />
            <mxPoint x="396.75" y="4915" as="targetPoint" />
            <Array as="points">
              <mxPoint x="140" y="4920" />
            </Array>
          </mxGeometry>
        </mxCell>
        <mxCell id="sCJPsLTUghXRObpwkUzK-294" value="" style="endArrow=classic;html=1;rounded=0;edgeStyle=elbowEdgeStyle;fillColor=#60a917;strokeColor=#2D7600;entryX=0;entryY=0.5;entryDx=0;entryDy=0;exitX=1.018;exitY=0.769;exitDx=0;exitDy=0;exitPerimeter=0;" parent="1" source="sCJPsLTUghXRObpwkUzK-172" target="sCJPsLTUghXRObpwkUzK-255" edge="1">
          <mxGeometry width="50" height="50" relative="1" as="geometry">
            <mxPoint x="10" y="4609" as="sourcePoint" />
            <mxPoint x="388" y="5350" as="targetPoint" />
            <Array as="points">
              <mxPoint x="110" y="5160" />
            </Array>
          </mxGeometry>
        </mxCell>
        <mxCell id="sCJPsLTUghXRObpwkUzK-295" value="" style="endArrow=classic;html=1;rounded=0;edgeStyle=elbowEdgeStyle;fillColor=#60a917;strokeColor=#2D7600;entryX=0;entryY=0.5;entryDx=0;entryDy=0;exitX=1.032;exitY=0.922;exitDx=0;exitDy=0;exitPerimeter=0;jumpStyle=none;" parent="1" source="sCJPsLTUghXRObpwkUzK-172" target="sCJPsLTUghXRObpwkUzK-271" edge="1">
          <mxGeometry width="50" height="50" relative="1" as="geometry">
            <mxPoint x="10" y="4640" as="sourcePoint" />
            <mxPoint x="381" y="5731" as="targetPoint" />
            <Array as="points">
              <mxPoint x="80" y="5410" />
            </Array>
          </mxGeometry>
        </mxCell>
        <mxCell id="sCJPsLTUghXRObpwkUzK-296" value="" style="endArrow=classic;html=1;rounded=0;exitX=1.014;exitY=0.084;exitDx=0;exitDy=0;exitPerimeter=0;entryX=0;entryY=0.5;entryDx=0;entryDy=0;edgeStyle=elbowEdgeStyle;strokeColor=light-dark(#000000,#1414FF);jumpStyle=arc;" parent="1" source="sCJPsLTUghXRObpwkUzK-174" target="sCJPsLTUghXRObpwkUzK-189" edge="1">
          <mxGeometry width="50" height="50" relative="1" as="geometry">
            <mxPoint x="40" y="4880" as="sourcePoint" />
            <mxPoint x="90" y="4830" as="targetPoint" />
            <Array as="points">
              <mxPoint x="270" y="4460" />
            </Array>
          </mxGeometry>
        </mxCell>
        <mxCell id="sCJPsLTUghXRObpwkUzK-297" value="" style="endArrow=classic;html=1;rounded=0;exitX=1;exitY=0.25;exitDx=0;exitDy=0;entryX=0;entryY=0.5;entryDx=0;entryDy=0;edgeStyle=elbowEdgeStyle;strokeColor=light-dark(#000000,#1414FF);jumpStyle=arc;" parent="1" source="sCJPsLTUghXRObpwkUzK-174" target="sCJPsLTUghXRObpwkUzK-208" edge="1">
          <mxGeometry width="50" height="50" relative="1" as="geometry">
            <mxPoint x="18.5" y="4913" as="sourcePoint" />
            <mxPoint x="427.5" y="4120" as="targetPoint" />
            <Array as="points">
              <mxPoint x="296.5" y="4525" />
            </Array>
          </mxGeometry>
        </mxCell>
        <mxCell id="sCJPsLTUghXRObpwkUzK-298" value="" style="endArrow=classic;html=1;rounded=0;entryX=0;entryY=0.5;entryDx=0;entryDy=0;edgeStyle=elbowEdgeStyle;strokeColor=light-dark(#000000,#1414FF);jumpStyle=arc;exitX=1;exitY=0.424;exitDx=0;exitDy=0;exitPerimeter=0;" parent="1" source="sCJPsLTUghXRObpwkUzK-174" target="sCJPsLTUghXRObpwkUzK-224" edge="1">
          <mxGeometry width="50" height="50" relative="1" as="geometry">
            <mxPoint x="10" y="4980" as="sourcePoint" />
            <mxPoint x="410" y="4562" as="targetPoint" />
            <Array as="points">
              <mxPoint x="210" y="4930" />
            </Array>
          </mxGeometry>
        </mxCell>
        <mxCell id="sCJPsLTUghXRObpwkUzK-299" value="" style="endArrow=classic;html=1;rounded=0;entryX=0;entryY=0.5;entryDx=0;entryDy=0;edgeStyle=elbowEdgeStyle;strokeColor=light-dark(#000000,#1414FF);jumpStyle=arc;" parent="1" target="sCJPsLTUghXRObpwkUzK-240" edge="1">
          <mxGeometry width="50" height="50" relative="1" as="geometry">
            <mxPoint x="-10" y="5025" as="sourcePoint" />
            <mxPoint x="396.25" y="4980" as="targetPoint" />
            <Array as="points">
              <mxPoint x="130" y="5180" />
            </Array>
          </mxGeometry>
        </mxCell>
        <mxCell id="sCJPsLTUghXRObpwkUzK-300" value="" style="endArrow=classic;html=1;rounded=0;entryX=0;entryY=0.5;entryDx=0;entryDy=0;edgeStyle=elbowEdgeStyle;strokeColor=light-dark(#000000,#1414FF);jumpStyle=arc;exitX=1;exitY=0.75;exitDx=0;exitDy=0;" parent="1" source="sCJPsLTUghXRObpwkUzK-174" target="sCJPsLTUghXRObpwkUzK-256" edge="1">
          <mxGeometry width="50" height="50" relative="1" as="geometry">
            <mxPoint y="5100" as="sourcePoint" />
            <mxPoint x="388" y="5410" as="targetPoint" />
            <Array as="points">
              <mxPoint x="90" y="5260" />
            </Array>
          </mxGeometry>
        </mxCell>
        <mxCell id="sCJPsLTUghXRObpwkUzK-301" value="" style="endArrow=classic;html=1;rounded=0;entryX=0;entryY=0.5;entryDx=0;entryDy=0;edgeStyle=elbowEdgeStyle;strokeColor=light-dark(#000000,#1414FF);jumpStyle=arc;exitX=1.013;exitY=0.931;exitDx=0;exitDy=0;exitPerimeter=0;" parent="1" source="sCJPsLTUghXRObpwkUzK-174" target="sCJPsLTUghXRObpwkUzK-272" edge="1">
          <mxGeometry width="50" height="50" relative="1" as="geometry">
            <mxPoint y="5078" as="sourcePoint" />
            <mxPoint x="383" y="5755" as="targetPoint" />
            <Array as="points">
              <mxPoint x="60" y="5680" />
            </Array>
          </mxGeometry>
        </mxCell>
        <mxCell id="sCJPsLTUghXRObpwkUzK-302" value="" style="endArrow=classic;html=1;rounded=0;exitX=0.995;exitY=0.062;exitDx=0;exitDy=0;exitPerimeter=0;entryX=0;entryY=0.5;entryDx=0;entryDy=0;edgeStyle=elbowEdgeStyle;fillColor=#e3c800;strokeColor=#B09500;jumpStyle=arc;" parent="1" source="sCJPsLTUghXRObpwkUzK-176" target="sCJPsLTUghXRObpwkUzK-190" edge="1">
          <mxGeometry width="50" height="50" relative="1" as="geometry">
            <mxPoint x="30" y="5310" as="sourcePoint" />
            <mxPoint x="80" y="5260" as="targetPoint" />
            <Array as="points">
              <mxPoint x="300" y="4680" />
            </Array>
          </mxGeometry>
        </mxCell>
        <mxCell id="sCJPsLTUghXRObpwkUzK-303" value="" style="endArrow=classic;html=1;rounded=0;exitX=1;exitY=0.25;exitDx=0;exitDy=0;entryX=0;entryY=0.5;entryDx=0;entryDy=0;edgeStyle=elbowEdgeStyle;fillColor=#e3c800;strokeColor=#B09500;jumpStyle=arc;" parent="1" source="sCJPsLTUghXRObpwkUzK-176" target="sCJPsLTUghXRObpwkUzK-209" edge="1">
          <mxGeometry width="50" height="50" relative="1" as="geometry">
            <mxPoint x="-1" y="5280" as="sourcePoint" />
            <mxPoint x="411" y="4105" as="targetPoint" />
            <Array as="points">
              <mxPoint x="310" y="4690" />
            </Array>
          </mxGeometry>
        </mxCell>
        <mxCell id="sCJPsLTUghXRObpwkUzK-304" value="" style="endArrow=classic;html=1;rounded=0;exitX=1.004;exitY=0.423;exitDx=0;exitDy=0;entryX=0;entryY=0.5;entryDx=0;entryDy=0;edgeStyle=elbowEdgeStyle;fillColor=#e3c800;strokeColor=#B09500;jumpStyle=arc;exitPerimeter=0;" parent="1" source="sCJPsLTUghXRObpwkUzK-176" target="sCJPsLTUghXRObpwkUzK-225" edge="1">
          <mxGeometry width="50" height="50" relative="1" as="geometry">
            <mxPoint y="5343" as="sourcePoint" />
            <mxPoint x="407" y="4535" as="targetPoint" />
            <Array as="points">
              <mxPoint x="330" y="5160" />
            </Array>
          </mxGeometry>
        </mxCell>
        <mxCell id="sCJPsLTUghXRObpwkUzK-305" value="" style="endArrow=classic;html=1;rounded=0;exitX=0.995;exitY=0.589;exitDx=0;exitDy=0;entryX=0;entryY=0.5;entryDx=0;entryDy=0;edgeStyle=elbowEdgeStyle;fillColor=#e3c800;strokeColor=#B09500;jumpStyle=arc;exitPerimeter=0;" parent="1" source="sCJPsLTUghXRObpwkUzK-176" target="sCJPsLTUghXRObpwkUzK-241" edge="1">
          <mxGeometry width="50" height="50" relative="1" as="geometry">
            <mxPoint x="-4.75" y="5445" as="sourcePoint" />
            <mxPoint x="396.25" y="5010" as="targetPoint" />
            <Array as="points">
              <mxPoint x="340" y="5410" />
            </Array>
          </mxGeometry>
        </mxCell>
        <mxCell id="sCJPsLTUghXRObpwkUzK-306" value="" style="endArrow=classic;html=1;rounded=0;exitX=0.995;exitY=0.774;exitDx=0;exitDy=0;entryX=0;entryY=0.5;entryDx=0;entryDy=0;edgeStyle=elbowEdgeStyle;fillColor=#e3c800;strokeColor=#B09500;jumpStyle=arc;exitPerimeter=0;" parent="1" source="sCJPsLTUghXRObpwkUzK-176" target="sCJPsLTUghXRObpwkUzK-257" edge="1">
          <mxGeometry width="50" height="50" relative="1" as="geometry">
            <mxPoint x="-10.25" y="5500" as="sourcePoint" />
            <mxPoint x="378.75" y="5431" as="targetPoint" />
            <Array as="points">
              <mxPoint x="340.75" y="5466" />
            </Array>
          </mxGeometry>
        </mxCell>
        <mxCell id="sCJPsLTUghXRObpwkUzK-307" value="" style="endArrow=classic;html=1;rounded=0;exitX=1.004;exitY=0.943;exitDx=0;exitDy=0;entryX=0;entryY=0.5;entryDx=0;entryDy=0;edgeStyle=elbowEdgeStyle;fillColor=#e3c800;strokeColor=#B09500;jumpStyle=arc;exitPerimeter=0;" parent="1" source="sCJPsLTUghXRObpwkUzK-176" target="sCJPsLTUghXRObpwkUzK-273" edge="1">
          <mxGeometry width="50" height="50" relative="1" as="geometry">
            <mxPoint x="-4" y="5550" as="sourcePoint" />
            <mxPoint x="380" y="5830" as="targetPoint" />
            <Array as="points">
              <mxPoint x="320" y="5910" />
            </Array>
          </mxGeometry>
        </mxCell>
        <mxCell id="sCJPsLTUghXRObpwkUzK-308" value="" style="endArrow=classic;html=1;rounded=0;exitX=1.039;exitY=0.094;exitDx=0;exitDy=0;exitPerimeter=0;entryX=0;entryY=0.5;entryDx=0;entryDy=0;edgeStyle=elbowEdgeStyle;strokeColor=#FF0000;jumpStyle=arc;" parent="1" source="sCJPsLTUghXRObpwkUzK-178" target="sCJPsLTUghXRObpwkUzK-191" edge="1">
          <mxGeometry width="50" height="50" relative="1" as="geometry">
            <mxPoint x="10" y="5680" as="sourcePoint" />
            <mxPoint x="60" y="5630" as="targetPoint" />
            <Array as="points">
              <mxPoint x="230" y="4920" />
            </Array>
          </mxGeometry>
        </mxCell>
        <mxCell id="sCJPsLTUghXRObpwkUzK-309" value="" style="endArrow=classic;html=1;rounded=0;exitX=1;exitY=0.25;exitDx=0;exitDy=0;entryX=0;entryY=0.5;entryDx=0;entryDy=0;edgeStyle=elbowEdgeStyle;strokeColor=#FF0000;jumpStyle=arc;" parent="1" source="sCJPsLTUghXRObpwkUzK-178" target="sCJPsLTUghXRObpwkUzK-210" edge="1">
          <mxGeometry width="50" height="50" relative="1" as="geometry">
            <mxPoint x="5" y="5691" as="sourcePoint" />
            <mxPoint x="410" y="4145" as="targetPoint" />
            <Array as="points">
              <mxPoint x="240" y="4930" />
            </Array>
          </mxGeometry>
        </mxCell>
        <mxCell id="sCJPsLTUghXRObpwkUzK-310" value="" style="endArrow=classic;html=1;rounded=0;exitX=1.013;exitY=0.419;exitDx=0;exitDy=0;entryX=0;entryY=0.5;entryDx=0;entryDy=0;edgeStyle=elbowEdgeStyle;strokeColor=#FF0000;jumpStyle=arc;exitPerimeter=0;" parent="1" source="sCJPsLTUghXRObpwkUzK-178" target="sCJPsLTUghXRObpwkUzK-226" edge="1">
          <mxGeometry width="50" height="50" relative="1" as="geometry">
            <mxPoint y="5743" as="sourcePoint" />
            <mxPoint x="406" y="4575" as="targetPoint" />
            <Array as="points">
              <mxPoint x="260" y="5380" />
            </Array>
          </mxGeometry>
        </mxCell>
        <mxCell id="sCJPsLTUghXRObpwkUzK-311" value="" style="endArrow=classic;html=1;rounded=0;exitX=1.013;exitY=0.611;exitDx=0;exitDy=0;entryX=0;entryY=0.5;entryDx=0;entryDy=0;edgeStyle=elbowEdgeStyle;strokeColor=#FF0000;jumpStyle=arc;exitPerimeter=0;" parent="1" source="sCJPsLTUghXRObpwkUzK-178" target="sCJPsLTUghXRObpwkUzK-242" edge="1">
          <mxGeometry width="50" height="50" relative="1" as="geometry">
            <mxPoint x="2" y="5798" as="sourcePoint" />
            <mxPoint x="400" y="5005" as="targetPoint" />
            <Array as="points">
              <mxPoint x="270" y="5450" />
            </Array>
          </mxGeometry>
        </mxCell>
        <mxCell id="sCJPsLTUghXRObpwkUzK-312" value="" style="endArrow=classic;html=1;rounded=0;exitX=1.013;exitY=0.78;exitDx=0;exitDy=0;entryX=0;entryY=0.5;entryDx=0;entryDy=0;edgeStyle=elbowEdgeStyle;strokeColor=#FF0000;jumpStyle=arc;exitPerimeter=0;" parent="1" source="sCJPsLTUghXRObpwkUzK-178" target="sCJPsLTUghXRObpwkUzK-258" edge="1">
          <mxGeometry width="50" height="50" relative="1" as="geometry">
            <mxPoint x="2" y="5862" as="sourcePoint" />
            <mxPoint x="388" y="5425" as="targetPoint" />
            <Array as="points">
              <mxPoint x="290" y="5790" />
            </Array>
          </mxGeometry>
        </mxCell>
        <mxCell id="sCJPsLTUghXRObpwkUzK-313" value="" style="endArrow=classic;html=1;rounded=0;exitX=0.995;exitY=0.946;exitDx=0;exitDy=0;entryX=0;entryY=0.5;entryDx=0;entryDy=0;edgeStyle=elbowEdgeStyle;strokeColor=#FF0000;jumpStyle=arc;exitPerimeter=0;" parent="1" source="sCJPsLTUghXRObpwkUzK-178" target="sCJPsLTUghXRObpwkUzK-274" edge="1">
          <mxGeometry width="50" height="50" relative="1" as="geometry">
            <mxPoint x="2" y="5917" as="sourcePoint" />
            <mxPoint x="383" y="5835" as="targetPoint" />
            <Array as="points">
              <mxPoint x="300" y="5800" />
            </Array>
          </mxGeometry>
        </mxCell>
        <mxCell id="sCJPsLTUghXRObpwkUzK-314" value="" style="endArrow=classic;html=1;rounded=0;exitX=0.982;exitY=0.07;exitDx=0;exitDy=0;exitPerimeter=0;entryX=0;entryY=0.5;entryDx=0;entryDy=0;fillColor=#647687;strokeColor=#FF33FF;edgeStyle=elbowEdgeStyle;jumpStyle=arc;" parent="1" source="sCJPsLTUghXRObpwkUzK-180" target="sCJPsLTUghXRObpwkUzK-192" edge="1">
          <mxGeometry width="50" height="50" relative="1" as="geometry">
            <mxPoint x="10" y="6180" as="sourcePoint" />
            <mxPoint x="60" y="6130" as="targetPoint" />
          </mxGeometry>
        </mxCell>
        <mxCell id="sCJPsLTUghXRObpwkUzK-315" value="" style="endArrow=classic;html=1;rounded=0;exitX=1;exitY=0.25;exitDx=0;exitDy=0;entryX=0;entryY=0.5;entryDx=0;entryDy=0;fillColor=#647687;strokeColor=#FF33FF;edgeStyle=elbowEdgeStyle;jumpStyle=arc;" parent="1" source="sCJPsLTUghXRObpwkUzK-180" target="sCJPsLTUghXRObpwkUzK-211" edge="1">
          <mxGeometry width="50" height="50" relative="1" as="geometry">
            <mxPoint x="-12" y="6153" as="sourcePoint" />
            <mxPoint x="411" y="4185" as="targetPoint" />
          </mxGeometry>
        </mxCell>
        <mxCell id="sCJPsLTUghXRObpwkUzK-316" value="" style="endArrow=classic;html=1;rounded=0;exitX=1;exitY=0.424;exitDx=0;exitDy=0;entryX=0;entryY=0.5;entryDx=0;entryDy=0;fillColor=#647687;strokeColor=#FF33FF;edgeStyle=elbowEdgeStyle;jumpStyle=arc;exitPerimeter=0;" parent="1" source="sCJPsLTUghXRObpwkUzK-180" target="sCJPsLTUghXRObpwkUzK-227" edge="1">
          <mxGeometry width="50" height="50" relative="1" as="geometry">
            <mxPoint x="-10" y="6213" as="sourcePoint" />
            <mxPoint x="407" y="4615" as="targetPoint" />
          </mxGeometry>
        </mxCell>
        <mxCell id="sCJPsLTUghXRObpwkUzK-317" value="" style="endArrow=classic;html=1;rounded=0;exitX=1.035;exitY=0.587;exitDx=0;exitDy=0;entryX=0;entryY=0.5;entryDx=0;entryDy=0;fillColor=#647687;strokeColor=#FF33FF;edgeStyle=elbowEdgeStyle;jumpStyle=arc;exitPerimeter=0;" parent="1" source="sCJPsLTUghXRObpwkUzK-180" target="sCJPsLTUghXRObpwkUzK-243" edge="1">
          <mxGeometry width="50" height="50" relative="1" as="geometry">
            <mxPoint x="-10" y="6270" as="sourcePoint" />
            <mxPoint x="401" y="5045" as="targetPoint" />
          </mxGeometry>
        </mxCell>
        <mxCell id="sCJPsLTUghXRObpwkUzK-318" value="" style="endArrow=classic;html=1;rounded=0;exitX=0.973;exitY=0.785;exitDx=0;exitDy=0;entryX=0;entryY=0.5;entryDx=0;entryDy=0;fillColor=#647687;strokeColor=#FF33FF;edgeStyle=elbowEdgeStyle;jumpStyle=arc;exitPerimeter=0;" parent="1" source="sCJPsLTUghXRObpwkUzK-180" target="sCJPsLTUghXRObpwkUzK-259" edge="1">
          <mxGeometry width="50" height="50" relative="1" as="geometry">
            <mxPoint x="-15.25" y="6374.5" as="sourcePoint" />
            <mxPoint x="378.75" y="5515.5" as="targetPoint" />
          </mxGeometry>
        </mxCell>
        <mxCell id="sCJPsLTUghXRObpwkUzK-319" value="" style="endArrow=classic;html=1;rounded=0;exitX=1.026;exitY=0.957;exitDx=0;exitDy=0;entryX=0;entryY=0.5;entryDx=0;entryDy=0;fillColor=#647687;strokeColor=#FF33FF;edgeStyle=elbowEdgeStyle;jumpStyle=arc;exitPerimeter=0;" parent="1" source="sCJPsLTUghXRObpwkUzK-180" target="sCJPsLTUghXRObpwkUzK-275" edge="1">
          <mxGeometry width="50" height="50" relative="1" as="geometry">
            <mxPoint x="-13" y="6389" as="sourcePoint" />
            <mxPoint x="383" y="5875" as="targetPoint" />
          </mxGeometry>
        </mxCell>
        <mxCell id="sCJPsLTUghXRObpwkUzK-326" value="" style="endArrow=none;html=1;rounded=0;" parent="1" edge="1">
          <mxGeometry width="50" height="50" relative="1" as="geometry">
            <mxPoint x="1260" y="6390" as="sourcePoint" />
            <mxPoint x="1240" y="3850" as="targetPoint" />
          </mxGeometry>
        </mxCell>
        <mxCell id="sCJPsLTUghXRObpwkUzK-327" value="" style="endArrow=none;html=1;rounded=0;fillColor=#fa6800;strokeColor=#00FFFF;" parent="1" edge="1">
          <mxGeometry width="50" height="50" relative="1" as="geometry">
            <mxPoint x="70" y="6500" as="sourcePoint" />
            <mxPoint x="50" y="3890" as="targetPoint" />
          </mxGeometry>
        </mxCell>
        <mxCell id="xZZvgzbtzPK1oLTCwxsR-1" value="10" style="rounded=0;whiteSpace=wrap;html=1;" parent="1" vertex="1">
          <mxGeometry x="-130" y="6810" width="120" height="60" as="geometry" />
        </mxCell>
        <mxCell id="xZZvgzbtzPK1oLTCwxsR-2" value="push A" style="text;html=1;align=center;verticalAlign=middle;whiteSpace=wrap;rounded=0;" parent="1" vertex="1">
          <mxGeometry x="-95" y="6870" width="60" height="30" as="geometry" />
        </mxCell>
        <mxCell id="xZZvgzbtzPK1oLTCwxsR-3" value="10" style="rounded=0;whiteSpace=wrap;html=1;" parent="1" vertex="1">
          <mxGeometry x="20" y="6810" width="120" height="60" as="geometry" />
        </mxCell>
        <mxCell id="xZZvgzbtzPK1oLTCwxsR-4" value="push B" style="text;html=1;align=center;verticalAlign=middle;whiteSpace=wrap;rounded=0;" parent="1" vertex="1">
          <mxGeometry x="55" y="6870" width="60" height="30" as="geometry" />
        </mxCell>
        <mxCell id="xZZvgzbtzPK1oLTCwxsR-5" value="2" style="rounded=0;whiteSpace=wrap;html=1;" parent="1" vertex="1">
          <mxGeometry x="20" y="6750" width="120" height="60" as="geometry" />
        </mxCell>
        <mxCell id="xZZvgzbtzPK1oLTCwxsR-6" value="5" style="rounded=0;whiteSpace=wrap;html=1;" parent="1" vertex="1">
          <mxGeometry x="170" y="6810" width="120" height="60" as="geometry" />
        </mxCell>
        <mxCell id="xZZvgzbtzPK1oLTCwxsR-7" value="devide" style="text;html=1;align=center;verticalAlign=middle;whiteSpace=wrap;rounded=0;" parent="1" vertex="1">
          <mxGeometry x="205" y="6870" width="60" height="30" as="geometry" />
        </mxCell>
        <mxCell id="xZZvgzbtzPK1oLTCwxsR-9" value="5" style="rounded=0;whiteSpace=wrap;html=1;" parent="1" vertex="1">
          <mxGeometry x="318" y="6810" width="120" height="60" as="geometry" />
        </mxCell>
        <mxCell id="xZZvgzbtzPK1oLTCwxsR-10" value="push C" style="text;html=1;align=center;verticalAlign=middle;whiteSpace=wrap;rounded=0;" parent="1" vertex="1">
          <mxGeometry x="352.5" y="6870" width="60" height="30" as="geometry" />
        </mxCell>
        <mxCell id="xZZvgzbtzPK1oLTCwxsR-11" value="8" style="rounded=0;whiteSpace=wrap;html=1;" parent="1" vertex="1">
          <mxGeometry x="318" y="6750" width="120" height="60" as="geometry" />
        </mxCell>
        <mxCell id="xZZvgzbtzPK1oLTCwxsR-13" value="5" style="rounded=0;whiteSpace=wrap;html=1;" parent="1" vertex="1">
          <mxGeometry x="460.5" y="6810" width="120" height="60" as="geometry" />
        </mxCell>
        <mxCell id="xZZvgzbtzPK1oLTCwxsR-14" value="push D" style="text;html=1;align=center;verticalAlign=middle;whiteSpace=wrap;rounded=0;" parent="1" vertex="1">
          <mxGeometry x="495" y="6870" width="60" height="30" as="geometry" />
        </mxCell>
        <mxCell id="xZZvgzbtzPK1oLTCwxsR-15" value="8" style="rounded=0;whiteSpace=wrap;html=1;" parent="1" vertex="1">
          <mxGeometry x="460.5" y="6750" width="120" height="60" as="geometry" />
        </mxCell>
        <mxCell id="xZZvgzbtzPK1oLTCwxsR-16" value="3" style="rounded=0;whiteSpace=wrap;html=1;" parent="1" vertex="1">
          <mxGeometry x="460.5" y="6690" width="120" height="60" as="geometry" />
        </mxCell>
        <mxCell id="xZZvgzbtzPK1oLTCwxsR-17" value="5" style="rounded=0;whiteSpace=wrap;html=1;" parent="1" vertex="1">
          <mxGeometry x="592.49" y="6810" width="120" height="60" as="geometry" />
        </mxCell>
        <mxCell id="xZZvgzbtzPK1oLTCwxsR-18" value="subtract" style="text;html=1;align=center;verticalAlign=middle;whiteSpace=wrap;rounded=0;" parent="1" vertex="1">
          <mxGeometry x="626.99" y="6870" width="60" height="30" as="geometry" />
        </mxCell>
        <mxCell id="xZZvgzbtzPK1oLTCwxsR-19" value="5" style="rounded=0;whiteSpace=wrap;html=1;" parent="1" vertex="1">
          <mxGeometry x="592.49" y="6750" width="120" height="60" as="geometry" />
        </mxCell>
        <mxCell id="xZZvgzbtzPK1oLTCwxsR-21" value="5" style="rounded=0;whiteSpace=wrap;html=1;" parent="1" vertex="1">
          <mxGeometry x="730" y="6810" width="120" height="60" as="geometry" />
        </mxCell>
        <mxCell id="xZZvgzbtzPK1oLTCwxsR-22" value="push E" style="text;html=1;align=center;verticalAlign=middle;whiteSpace=wrap;rounded=0;" parent="1" vertex="1">
          <mxGeometry x="764.5" y="6870" width="60" height="30" as="geometry" />
        </mxCell>
        <mxCell id="xZZvgzbtzPK1oLTCwxsR-23" value="5" style="rounded=0;whiteSpace=wrap;html=1;" parent="1" vertex="1">
          <mxGeometry x="730" y="6750" width="120" height="60" as="geometry" />
        </mxCell>
        <mxCell id="xZZvgzbtzPK1oLTCwxsR-24" value="5" style="rounded=0;whiteSpace=wrap;html=1;" parent="1" vertex="1">
          <mxGeometry x="730" y="6690" width="120" height="60" as="geometry" />
        </mxCell>
        <mxCell id="xZZvgzbtzPK1oLTCwxsR-25" value="5" style="rounded=0;whiteSpace=wrap;html=1;" parent="1" vertex="1">
          <mxGeometry x="870" y="6810" width="120" height="60" as="geometry" />
        </mxCell>
        <mxCell id="xZZvgzbtzPK1oLTCwxsR-26" value="devide" style="text;html=1;align=center;verticalAlign=middle;whiteSpace=wrap;rounded=0;" parent="1" vertex="1">
          <mxGeometry x="904.5" y="6870" width="60" height="30" as="geometry" />
        </mxCell>
        <mxCell id="xZZvgzbtzPK1oLTCwxsR-27" value="1" style="rounded=0;whiteSpace=wrap;html=1;" parent="1" vertex="1">
          <mxGeometry x="870" y="6750" width="120" height="60" as="geometry" />
        </mxCell>
        <mxCell id="xZZvgzbtzPK1oLTCwxsR-29" value="6" style="rounded=0;whiteSpace=wrap;html=1;" parent="1" vertex="1">
          <mxGeometry x="-130" y="7090" width="120" height="60" as="geometry" />
        </mxCell>
        <mxCell id="xZZvgzbtzPK1oLTCwxsR-30" value="add" style="text;html=1;align=center;verticalAlign=middle;whiteSpace=wrap;rounded=0;" parent="1" vertex="1">
          <mxGeometry x="-95.5" y="7150" width="60" height="30" as="geometry" />
        </mxCell>
        <mxCell id="xZZvgzbtzPK1oLTCwxsR-32" value="6" style="rounded=0;whiteSpace=wrap;html=1;" parent="1" vertex="1">
          <mxGeometry x="5" y="7090" width="120" height="60" as="geometry" />
        </mxCell>
        <mxCell id="xZZvgzbtzPK1oLTCwxsR-33" value="push F" style="text;html=1;align=center;verticalAlign=middle;whiteSpace=wrap;rounded=0;" parent="1" vertex="1">
          <mxGeometry x="39.5" y="7150" width="60" height="30" as="geometry" />
        </mxCell>
        <mxCell id="xZZvgzbtzPK1oLTCwxsR-34" value="12" style="rounded=0;whiteSpace=wrap;html=1;" parent="1" vertex="1">
          <mxGeometry x="5" y="7030" width="120" height="60" as="geometry" />
        </mxCell>
        <mxCell id="xZZvgzbtzPK1oLTCwxsR-35" value="6" style="rounded=0;whiteSpace=wrap;html=1;" parent="1" vertex="1">
          <mxGeometry x="160" y="7090" width="120" height="60" as="geometry" />
        </mxCell>
        <mxCell id="xZZvgzbtzPK1oLTCwxsR-36" value="push G" style="text;html=1;align=center;verticalAlign=middle;whiteSpace=wrap;rounded=0;" parent="1" vertex="1">
          <mxGeometry x="194.5" y="7150" width="60" height="30" as="geometry" />
        </mxCell>
        <mxCell id="xZZvgzbtzPK1oLTCwxsR-37" value="12" style="rounded=0;whiteSpace=wrap;html=1;" parent="1" vertex="1">
          <mxGeometry x="160" y="7030" width="120" height="60" as="geometry" />
        </mxCell>
        <mxCell id="xZZvgzbtzPK1oLTCwxsR-38" value="7" style="rounded=0;whiteSpace=wrap;html=1;" parent="1" vertex="1">
          <mxGeometry x="160" y="6970" width="120" height="60" as="geometry" />
        </mxCell>
        <mxCell id="xZZvgzbtzPK1oLTCwxsR-39" value="6" style="rounded=0;whiteSpace=wrap;html=1;" parent="1" vertex="1">
          <mxGeometry x="300" y="7090" width="120" height="60" as="geometry" />
        </mxCell>
        <mxCell id="xZZvgzbtzPK1oLTCwxsR-40" value="push H" style="text;html=1;align=center;verticalAlign=middle;whiteSpace=wrap;rounded=0;" parent="1" vertex="1">
          <mxGeometry x="334.5" y="7150" width="60" height="30" as="geometry" />
        </mxCell>
        <mxCell id="xZZvgzbtzPK1oLTCwxsR-41" value="12" style="rounded=0;whiteSpace=wrap;html=1;" parent="1" vertex="1">
          <mxGeometry x="300" y="7030" width="120" height="60" as="geometry" />
        </mxCell>
        <mxCell id="xZZvgzbtzPK1oLTCwxsR-42" value="7" style="rounded=0;whiteSpace=wrap;html=1;" parent="1" vertex="1">
          <mxGeometry x="300" y="6970" width="120" height="60" as="geometry" />
        </mxCell>
        <mxCell id="xZZvgzbtzPK1oLTCwxsR-43" value="3" style="rounded=0;whiteSpace=wrap;html=1;" parent="1" vertex="1">
          <mxGeometry x="300" y="6910" width="120" height="60" as="geometry" />
        </mxCell>
        <mxCell id="xZZvgzbtzPK1oLTCwxsR-44" value="6" style="rounded=0;whiteSpace=wrap;html=1;" parent="1" vertex="1">
          <mxGeometry x="440" y="7090" width="120" height="60" as="geometry" />
        </mxCell>
        <mxCell id="xZZvgzbtzPK1oLTCwxsR-45" value="subtract" style="text;html=1;align=center;verticalAlign=middle;whiteSpace=wrap;rounded=0;" parent="1" vertex="1">
          <mxGeometry x="474.5" y="7150" width="60" height="30" as="geometry" />
        </mxCell>
        <mxCell id="xZZvgzbtzPK1oLTCwxsR-46" value="12" style="rounded=0;whiteSpace=wrap;html=1;" parent="1" vertex="1">
          <mxGeometry x="440" y="7030" width="120" height="60" as="geometry" />
        </mxCell>
        <mxCell id="xZZvgzbtzPK1oLTCwxsR-47" value="4" style="rounded=0;whiteSpace=wrap;html=1;" parent="1" vertex="1">
          <mxGeometry x="440" y="6970" width="120" height="60" as="geometry" />
        </mxCell>
        <mxCell id="xZZvgzbtzPK1oLTCwxsR-49" value="6" style="rounded=0;whiteSpace=wrap;html=1;" parent="1" vertex="1">
          <mxGeometry x="580" y="7090" width="120" height="60" as="geometry" />
        </mxCell>
        <mxCell id="xZZvgzbtzPK1oLTCwxsR-50" value="devide" style="text;html=1;align=center;verticalAlign=middle;whiteSpace=wrap;rounded=0;" parent="1" vertex="1">
          <mxGeometry x="614.5" y="7150" width="60" height="30" as="geometry" />
        </mxCell>
        <mxCell id="xZZvgzbtzPK1oLTCwxsR-51" value="3" style="rounded=0;whiteSpace=wrap;html=1;" parent="1" vertex="1">
          <mxGeometry x="580" y="7030" width="120" height="60" as="geometry" />
        </mxCell>
        <mxCell id="xZZvgzbtzPK1oLTCwxsR-53" value="9" style="rounded=0;whiteSpace=wrap;html=1;" parent="1" vertex="1">
          <mxGeometry x="720" y="7080" width="120" height="60" as="geometry" />
        </mxCell>
        <mxCell id="xZZvgzbtzPK1oLTCwxsR-54" value="add" style="text;html=1;align=center;verticalAlign=middle;whiteSpace=wrap;rounded=0;" parent="1" vertex="1">
          <mxGeometry x="754.5" y="7140" width="60" height="30" as="geometry" />
        </mxCell>
        <mxCell id="ArwihjXxflNH5I-L45XX-3" value="" style="edgeStyle=orthogonalEdgeStyle;rounded=0;orthogonalLoop=1;jettySize=auto;html=1;" edge="1" parent="1" source="ArwihjXxflNH5I-L45XX-1" target="ArwihjXxflNH5I-L45XX-2">
          <mxGeometry relative="1" as="geometry" />
        </mxCell>
        <mxCell id="ArwihjXxflNH5I-L45XX-1" value="COUNT &amp;lt;-- -8&lt;div&gt;C&amp;lt;-- 0&lt;/div&gt;" style="rounded=0;whiteSpace=wrap;html=1;" vertex="1" parent="1">
          <mxGeometry x="324.96999999999997" y="7540" width="120" height="60" as="geometry" />
        </mxCell>
        <mxCell id="ArwihjXxflNH5I-L45XX-5" value="" style="edgeStyle=orthogonalEdgeStyle;rounded=0;orthogonalLoop=1;jettySize=auto;html=1;" edge="1" parent="1" source="ArwihjXxflNH5I-L45XX-2" target="ArwihjXxflNH5I-L45XX-4">
          <mxGeometry relative="1" as="geometry" />
        </mxCell>
        <mxCell id="ArwihjXxflNH5I-L45XX-2" value="CLE&lt;br&gt;E&amp;lt;-- 0" style="whiteSpace=wrap;html=1;rounded=0;" vertex="1" parent="1">
          <mxGeometry x="324.96999999999997" y="7680" width="120" height="60" as="geometry" />
        </mxCell>
        <mxCell id="ArwihjXxflNH5I-L45XX-7" value="" style="edgeStyle=orthogonalEdgeStyle;rounded=0;orthogonalLoop=1;jettySize=auto;html=1;" edge="1" parent="1" source="ArwihjXxflNH5I-L45XX-4" target="ArwihjXxflNH5I-L45XX-6">
          <mxGeometry relative="1" as="geometry" />
        </mxCell>
        <mxCell id="ArwihjXxflNH5I-L45XX-4" value="LDA B&lt;div&gt;AC &amp;lt;-- B&lt;/div&gt;" style="whiteSpace=wrap;html=1;rounded=0;" vertex="1" parent="1">
          <mxGeometry x="324.96999999999997" y="7820" width="120" height="60" as="geometry" />
        </mxCell>
        <mxCell id="ArwihjXxflNH5I-L45XX-9" value="" style="edgeStyle=orthogonalEdgeStyle;rounded=0;orthogonalLoop=1;jettySize=auto;html=1;" edge="1" parent="1" source="ArwihjXxflNH5I-L45XX-6" target="ArwihjXxflNH5I-L45XX-8">
          <mxGeometry relative="1" as="geometry" />
        </mxCell>
        <mxCell id="ArwihjXxflNH5I-L45XX-6" value="CIR&lt;div&gt;AC&amp;lt;-- shr AC&lt;br&gt;AC(15) &amp;lt;-- E&lt;/div&gt;&lt;div&gt;E&amp;lt;--AC(0)&lt;/div&gt;" style="whiteSpace=wrap;html=1;rounded=0;" vertex="1" parent="1">
          <mxGeometry x="324.96999999999997" y="7960" width="120" height="60" as="geometry" />
        </mxCell>
        <mxCell id="ArwihjXxflNH5I-L45XX-11" value="" style="edgeStyle=orthogonalEdgeStyle;rounded=0;orthogonalLoop=1;jettySize=auto;html=1;" edge="1" parent="1" source="ArwihjXxflNH5I-L45XX-8" target="ArwihjXxflNH5I-L45XX-10">
          <mxGeometry relative="1" as="geometry" />
        </mxCell>
        <mxCell id="ArwihjXxflNH5I-L45XX-8" value="STA B&lt;div&gt;B&amp;lt;--AC&lt;/div&gt;" style="whiteSpace=wrap;html=1;rounded=0;" vertex="1" parent="1">
          <mxGeometry x="324.96999999999997" y="8100" width="120" height="60" as="geometry" />
        </mxCell>
        <mxCell id="ArwihjXxflNH5I-L45XX-13" value="" style="edgeStyle=orthogonalEdgeStyle;rounded=0;orthogonalLoop=1;jettySize=auto;html=1;" edge="1" parent="1" source="ArwihjXxflNH5I-L45XX-10" target="ArwihjXxflNH5I-L45XX-12">
          <mxGeometry relative="1" as="geometry" />
        </mxCell>
        <mxCell id="ArwihjXxflNH5I-L45XX-15" value="" style="edgeStyle=orthogonalEdgeStyle;rounded=0;orthogonalLoop=1;jettySize=auto;html=1;" edge="1" parent="1" source="ArwihjXxflNH5I-L45XX-10" target="ArwihjXxflNH5I-L45XX-14">
          <mxGeometry relative="1" as="geometry">
            <Array as="points">
              <mxPoint x="185" y="8270" />
              <mxPoint x="185" y="8620" />
              <mxPoint x="385" y="8620" />
            </Array>
          </mxGeometry>
        </mxCell>
        <mxCell id="ArwihjXxflNH5I-L45XX-10" value="E" style="rhombus;whiteSpace=wrap;html=1;rounded=0;" vertex="1" parent="1">
          <mxGeometry x="344.96999999999997" y="8230" width="80" height="80" as="geometry" />
        </mxCell>
        <mxCell id="ArwihjXxflNH5I-L45XX-19" value="" style="edgeStyle=orthogonalEdgeStyle;rounded=0;orthogonalLoop=1;jettySize=auto;html=1;" edge="1" parent="1" source="ArwihjXxflNH5I-L45XX-12" target="ArwihjXxflNH5I-L45XX-18">
          <mxGeometry relative="1" as="geometry" />
        </mxCell>
        <mxCell id="ArwihjXxflNH5I-L45XX-12" value="LDA A&lt;div&gt;AC&amp;lt;-- A&lt;/div&gt;" style="whiteSpace=wrap;html=1;rounded=0;" vertex="1" parent="1">
          <mxGeometry x="526.25" y="8350" width="120" height="60" as="geometry" />
        </mxCell>
        <mxCell id="ArwihjXxflNH5I-L45XX-24" value="" style="edgeStyle=orthogonalEdgeStyle;rounded=0;orthogonalLoop=1;jettySize=auto;html=1;" edge="1" parent="1" source="ArwihjXxflNH5I-L45XX-14" target="ArwihjXxflNH5I-L45XX-23">
          <mxGeometry relative="1" as="geometry" />
        </mxCell>
        <mxCell id="ArwihjXxflNH5I-L45XX-14" value="LDA A&lt;div&gt;AC&amp;lt;-- A&lt;/div&gt;" style="whiteSpace=wrap;html=1;rounded=0;" vertex="1" parent="1">
          <mxGeometry x="319.99999999999994" y="8670" width="120" height="60" as="geometry" />
        </mxCell>
        <mxCell id="ArwihjXxflNH5I-L45XX-16" value="= 1" style="text;html=1;align=center;verticalAlign=middle;whiteSpace=wrap;rounded=0;" vertex="1" parent="1">
          <mxGeometry x="445" y="8235" width="60" height="30" as="geometry" />
        </mxCell>
        <mxCell id="ArwihjXxflNH5I-L45XX-17" value="= 0" style="text;html=1;align=center;verticalAlign=middle;whiteSpace=wrap;rounded=0;" vertex="1" parent="1">
          <mxGeometry x="280" y="8235" width="60" height="30" as="geometry" />
        </mxCell>
        <mxCell id="ArwihjXxflNH5I-L45XX-21" value="" style="edgeStyle=orthogonalEdgeStyle;rounded=0;orthogonalLoop=1;jettySize=auto;html=1;" edge="1" parent="1" source="ArwihjXxflNH5I-L45XX-18" target="ArwihjXxflNH5I-L45XX-20">
          <mxGeometry relative="1" as="geometry" />
        </mxCell>
        <mxCell id="ArwihjXxflNH5I-L45XX-18" value="&lt;div&gt;ADD C&lt;/div&gt;&lt;div&gt;DR &amp;lt;-- C&lt;br&gt;AC&amp;lt;-- DR +AC&lt;/div&gt;" style="whiteSpace=wrap;html=1;rounded=0;" vertex="1" parent="1">
          <mxGeometry x="526" y="8440" width="120" height="60" as="geometry" />
        </mxCell>
        <mxCell id="ArwihjXxflNH5I-L45XX-22" style="edgeStyle=orthogonalEdgeStyle;rounded=0;orthogonalLoop=1;jettySize=auto;html=1;entryX=0.5;entryY=0;entryDx=0;entryDy=0;" edge="1" parent="1" source="ArwihjXxflNH5I-L45XX-20" target="ArwihjXxflNH5I-L45XX-14">
          <mxGeometry relative="1" as="geometry">
            <mxPoint x="400" y="8560" as="targetPoint" />
            <Array as="points">
              <mxPoint x="586" y="8620" />
              <mxPoint x="380" y="8620" />
            </Array>
          </mxGeometry>
        </mxCell>
        <mxCell id="ArwihjXxflNH5I-L45XX-20" value="STA C&lt;div&gt;M[AR] &amp;lt;-- AC&lt;/div&gt;" style="whiteSpace=wrap;html=1;rounded=0;" vertex="1" parent="1">
          <mxGeometry x="526" y="8530" width="120" height="60" as="geometry" />
        </mxCell>
        <mxCell id="ArwihjXxflNH5I-L45XX-26" value="" style="edgeStyle=orthogonalEdgeStyle;rounded=0;orthogonalLoop=1;jettySize=auto;html=1;" edge="1" parent="1" source="ArwihjXxflNH5I-L45XX-23" target="ArwihjXxflNH5I-L45XX-25">
          <mxGeometry relative="1" as="geometry" />
        </mxCell>
        <mxCell id="ArwihjXxflNH5I-L45XX-23" value="CIL&lt;div&gt;&lt;div&gt;AC&amp;lt;-- shl AC&lt;br&gt;AC(0) &amp;lt;-- E&lt;/div&gt;&lt;div&gt;E&amp;lt;--AC(15)&lt;/div&gt;&lt;/div&gt;" style="whiteSpace=wrap;html=1;rounded=0;" vertex="1" parent="1">
          <mxGeometry x="319.99999999999994" y="8810" width="120" height="60" as="geometry" />
        </mxCell>
        <mxCell id="ArwihjXxflNH5I-L45XX-28" value="" style="edgeStyle=orthogonalEdgeStyle;rounded=0;orthogonalLoop=1;jettySize=auto;html=1;" edge="1" parent="1" source="ArwihjXxflNH5I-L45XX-25" target="ArwihjXxflNH5I-L45XX-27">
          <mxGeometry relative="1" as="geometry" />
        </mxCell>
        <mxCell id="ArwihjXxflNH5I-L45XX-25" value="STA A&lt;div&gt;M[AR] &amp;lt;-- AC&lt;/div&gt;" style="whiteSpace=wrap;html=1;rounded=0;" vertex="1" parent="1">
          <mxGeometry x="319.99999999999994" y="8950" width="120" height="60" as="geometry" />
        </mxCell>
        <mxCell id="ArwihjXxflNH5I-L45XX-29" style="edgeStyle=orthogonalEdgeStyle;rounded=0;orthogonalLoop=1;jettySize=auto;html=1;" edge="1" parent="1" source="ArwihjXxflNH5I-L45XX-27">
          <mxGeometry relative="1" as="geometry">
            <mxPoint x="380" y="9280" as="targetPoint" />
          </mxGeometry>
        </mxCell>
        <mxCell id="ArwihjXxflNH5I-L45XX-32" style="edgeStyle=orthogonalEdgeStyle;rounded=0;orthogonalLoop=1;jettySize=auto;html=1;entryX=0;entryY=0.5;entryDx=0;entryDy=0;" edge="1" parent="1" source="ArwihjXxflNH5I-L45XX-27" target="ArwihjXxflNH5I-L45XX-2">
          <mxGeometry relative="1" as="geometry">
            <Array as="points">
              <mxPoint x="20" y="9120" />
              <mxPoint x="20" y="7710" />
            </Array>
          </mxGeometry>
        </mxCell>
        <mxCell id="ArwihjXxflNH5I-L45XX-27" value="COUNT" style="whiteSpace=wrap;html=1;rounded=0;" vertex="1" parent="1">
          <mxGeometry x="319.99999999999994" y="9090" width="120" height="60" as="geometry" />
        </mxCell>
        <mxCell id="ArwihjXxflNH5I-L45XX-30" value="= 0" style="text;html=1;align=center;verticalAlign=middle;whiteSpace=wrap;rounded=0;" vertex="1" parent="1">
          <mxGeometry x="392.5" y="9170" width="60" height="30" as="geometry" />
        </mxCell>
        <mxCell id="ArwihjXxflNH5I-L45XX-31" value="STOP" style="whiteSpace=wrap;html=1;rounded=0;" vertex="1" parent="1">
          <mxGeometry x="319.99999999999994" y="9280" width="120" height="60" as="geometry" />
        </mxCell>
        <mxCell id="ArwihjXxflNH5I-L45XX-33" value="NOT 0" style="text;html=1;align=center;verticalAlign=middle;whiteSpace=wrap;rounded=0;" vertex="1" parent="1">
          <mxGeometry x="230" y="9080" width="60" height="30" as="geometry" />
        </mxCell>
      </root>
    </mxGraphModel>
  </diagram>
</mxfile>
